<svg width="208" height="96" viewBox="0 0 208 96" fill="none" xmlns="http://www.w3.org/2000/svg">
<g id="Group">
<g id="Group_2">
<g id="Group_3">
<g id="Group_4">
<g id="Group_5">
<path id="Vector" d="M44.1577 76.6398C34.0484 80.714 10.8783 73.0766 3.73509 51.7164C1.38358 44.6858 0.546696 35.813 2.85371 26.7012C3.66469 23.4984 4.86446 20.2663 6.52343 17.0709C8.35275 13.5445 10.9116 10.18 14.411 7.19059C18.9695 3.29286 24.8129 0.406306 30.7971 1.02775C33.7632 1.33289 36.6628 2.63833 38.892 4.6019C40.1917 5.74548 41.2619 7.11332 41.9877 8.63569C42.5284 9.77191 42.8765 10.9964 42.9839 12.2797C43.4949 18.4277 38.8549 23.6529 34.7038 28.2382C31.3822 31.9043 28.1494 35.7285 25.9646 40.1557C23.7798 44.5829 22.717 49.7198 23.9316 54.5C25.635 61.1813 32.0635 66.3806 38.9956 66.6784C40.5065 69.885 42.6469 73.4334 44.1577 76.6398Z" fill="#FCA260"/>
</g>
<g id="Group_6">
<path id="Vector_2" d="M41.9873 9.16108C41.5762 10.4186 40.8134 11.5365 39.7025 12.2903C37.4843 13.7905 34.5034 13.614 32.089 14.7797C28.6155 16.4565 27.0417 20.4423 24.3829 23.2259C21.539 26.208 17.2693 27.7818 13.1552 27.37C11.1481 27.1677 9.0929 26.4543 7.79681 24.921C6.13414 22.9611 6.06381 20.1261 6.52294 17.5962C8.35225 14.0699 10.9111 10.7054 14.4105 7.7159C18.969 3.81817 24.8124 0.931698 30.7966 1.55314C35.4921 2.03859 40.0173 5.02437 41.9873 9.16108Z" fill="#C4754B"/>
</g>
<g id="Group_7" opacity="0.2">
<path id="Vector_3" d="M44.1577 76.6399C34.0484 80.7141 10.8783 73.0768 3.73509 51.7166C1.38358 44.686 0.546696 35.8132 2.85371 26.7013C1.428 37.512 4.43118 48.8558 11.0819 57.5411C12.1854 58.9862 13.4296 60.3945 15.0627 61.2145C16.692 62.0308 18.7917 62.1485 20.2691 61.0784C23.0316 59.0744 22.017 54.8715 21.2394 51.5585C19.8692 45.723 20.2691 39.3358 23.1687 34.0776C25.5312 29.7865 29.3491 26.5102 32.7596 22.9839C36.1739 19.4575 39.3622 15.3098 39.9028 10.4486C40.1213 8.48514 39.7436 6.41118 38.8919 4.60205C40.1917 5.74563 41.2618 7.11347 41.9877 8.63584C42.5283 9.77206 42.8764 10.9965 42.9838 12.2798C43.4948 18.4279 38.8549 23.653 34.7037 28.2384C31.3821 31.9044 28.1493 35.7286 25.9645 40.1558C23.7797 44.583 22.7169 49.7199 23.9315 54.5001C25.6349 61.1814 32.0635 66.3808 38.9955 66.6786C40.5065 69.8851 42.6469 73.4335 44.1577 76.6399Z" fill="#676767"/>
</g>
<g id="Group_8" opacity="0.6">
<g id="Group_9">
<path id="Vector_4" d="M4.73224 32.8471C5.54322 29.6444 6.743 26.4122 8.40197 23.2169C10.2313 19.6905 12.7901 16.326 16.2895 13.3366C20.848 9.43883 26.6914 6.55229 32.6756 7.17373C35.6418 7.47887 38.5413 8.78431 40.7706 10.7479C41.8924 11.7349 42.8419 12.8897 43.5479 14.1661C43.5997 13.5468 43.6051 12.9185 43.5521 12.2796C43.4446 10.9964 43.0966 9.77191 42.5559 8.63569C41.8301 7.11332 40.7599 5.74548 39.4602 4.6019C37.2309 2.63833 34.3314 1.33289 31.3652 1.02775C25.3811 0.406306 19.5376 3.29286 14.9792 7.19059C11.4798 10.18 8.92094 13.5445 7.09163 17.0708C5.43266 20.2663 4.23289 23.4984 3.42191 26.7012C1.28391 35.1455 1.84877 43.3816 3.81427 50.1394C3.06181 44.7874 3.20694 38.8714 4.73224 32.8471Z" fill="white"/>
</g>
</g>
</g>
<g id="Group_10">
<g id="Group_11">
<path id="Vector_5" d="M37.9513 79.6934C33.5919 79.6934 28.5983 78.5447 23.7678 76.3312C17.7969 73.5952 7.07194 66.8877 2.33017 52.7069C-1.58113 41.0092 -0.532835 27.9666 5.20645 16.9224C7.2362 13.01 10.0079 9.5371 13.4445 6.60159C19.0448 1.81244 25.261 -0.501001 30.9507 0.0908993C36.2064 0.634046 41.1801 4.0267 43.3261 8.53277C43.959 9.8629 44.3403 11.2593 44.4594 12.6836C45.0308 19.5566 39.9151 25.2072 35.8047 29.7475C32.8341 33.0263 29.4821 36.8951 27.2941 41.3287C25.0312 45.9143 24.347 50.6509 25.3673 54.6659C26.9074 60.7069 32.7937 65.4659 39.059 65.7348C39.6105 65.7585 40.1028 66.0846 40.3366 66.581C41.0748 68.1478 41.993 69.8467 42.8813 71.4893C43.7882 73.1675 44.7261 74.9026 45.4987 76.5422C45.6709 76.9076 45.6844 77.3271 45.5361 77.7026C45.3877 78.0781 45.0905 78.3768 44.7142 78.5285C42.7739 79.3104 40.4681 79.6934 37.9513 79.6934ZM29.1554 2.93999C23.2045 2.93999 18.0394 6.55443 15.3771 8.83098C12.2302 11.5193 9.69442 14.6949 7.83961 18.2704C0.204323 32.9628 3.40948 46.5988 5.14185 51.7797C9.53155 64.9081 19.4735 71.1238 25.0092 73.6604C31.0837 76.4436 37.5597 77.4113 42.0786 76.2902C41.5074 75.1679 40.882 74.0109 40.2709 72.8806C39.507 71.4675 38.7213 70.0138 38.0308 68.6106C30.7497 67.9022 24.3002 62.4669 22.4951 55.3867C21.3032 50.6961 22.0628 45.2443 24.6339 40.0343C26.9894 35.2607 30.4981 31.206 33.6021 27.7802C37.5256 23.4462 41.9731 18.5335 41.5072 12.9263C41.4174 11.8552 41.1284 10.7997 40.6478 9.78967C38.9284 6.1796 34.9078 3.45741 30.6432 3.01656C30.1428 2.96475 29.6461 2.93999 29.1554 2.93999Z" fill="#676767"/>
</g>
</g>
</g>
<g id="Group_12">
<path id="Vector_6" d="M196.626 82.2035C196.548 84.0567 195.211 85.3731 193.249 86.3109C189.761 87.9839 184.295 88.4435 180.429 88.5391C180.429 88.5391 180.429 88.5391 180.425 88.5391C177.774 88.609 175.874 88.5061 175.874 88.5061L175.344 80.6627L175.226 78.9345L174.659 70.5397L184.002 69.5947H184.021C184.021 69.5947 184.147 69.6278 184.376 69.694C184.417 69.7051 184.465 69.7197 184.517 69.7345C185.783 70.1132 189.242 71.2899 192.142 73.5549C194.682 75.5406 196.789 78.3573 196.626 82.2035Z" fill="#FCA260"/>
</g>
<g id="Group_13">
<path id="Vector_7" d="M178.51 89.3898C177.174 89.3898 176.197 89.3479 175.799 89.3276C175.05 89.2889 174.448 88.7004 174.398 87.9571L173.181 69.9919C173.128 69.2012 173.715 68.5104 174.509 68.4301L183.873 67.4847C184.035 67.4681 184.198 67.4786 184.357 67.5151C184.992 67.6614 199.892 71.2197 198.087 81.8006C196.928 88.5968 184.325 89.3898 178.51 89.3898ZM177.264 86.4387C184.317 86.6043 194.464 85.4239 195.166 81.3093C196.411 74.0133 185.622 70.8848 183.913 70.4375L176.233 71.2129L177.264 86.4387Z" fill="#676767"/>
</g>
<g id="Group_14">
<path id="Vector_8" d="M161.208 15.5645C161.208 15.5645 167.354 8.12671 175.247 6.78396C176.939 6.49602 178.631 7.36067 179.402 8.88408C180.984 12.0106 182.993 18.1206 180.252 25.9655C180.252 25.9655 170.492 24.0744 161.208 15.5645Z" fill="#FCA260"/>
</g>
<g id="Group_15">
<path id="Vector_9" d="M179.305 30.0836L179.148 30.0532C179.049 30.0343 169.229 28.0543 160.013 19.607L159.885 19.4896L159.996 19.3555C160.058 19.2803 166.276 11.8489 174.146 10.51C175.902 10.2106 177.691 11.1154 178.498 12.7086C180.018 15.7115 182.15 21.9418 179.358 29.9329L179.305 30.0836ZM160.395 19.4564C168.859 27.1532 177.776 29.3705 179.061 29.6583C181.728 21.869 179.651 15.8053 178.167 12.8739C177.433 11.4239 175.806 10.6017 174.209 10.8723C167.054 12.0896 161.267 18.4543 160.395 19.4564Z" fill="#FCA260"/>
</g>
<g id="Group_16" opacity="0.6">
<path id="Vector_10" d="M180.588 25.9664C180.588 25.9664 180.573 25.9627 180.54 25.9554C181.573 19.9985 179.977 15.3764 178.666 12.7914C177.896 11.2691 176.203 10.405 174.511 10.6918C169.705 11.5081 165.546 14.5895 163.028 16.8693C162.532 16.4501 162.039 16.0162 161.543 15.564C161.543 15.564 167.69 8.12884 175.585 6.78311C177.277 6.49628 178.966 7.36038 179.74 8.88635C181.321 12.0119 183.328 18.1195 180.588 25.9664Z" fill="white"/>
</g>
<g id="Group_17">
<path id="Vector_11" d="M180.253 27.4362C180.159 27.4362 180.063 27.4274 179.968 27.4088C179.553 27.3285 169.687 25.3381 160.203 16.6453C159.626 16.1168 159.565 15.2337 160.062 14.6316C160.328 14.3105 166.655 6.75317 174.996 5.33406C177.308 4.93891 179.664 6.12846 180.725 8.22317C182.336 11.4076 184.599 18.0097 181.651 26.4474C181.441 27.0482 180.873 27.4362 180.253 27.4362ZM163.309 15.4561C169.883 21.0888 176.542 23.4215 179.262 24.1973C181.215 17.4035 179.397 12.1515 178.078 9.54414C177.598 8.59599 176.536 8.0579 175.496 8.23336C169.973 9.17332 165.259 13.4508 163.309 15.4561Z" fill="#676767"/>
</g>
<g id="Group_18">
<path id="Vector_12" d="M174.39 11.0248C172.891 11.5421 170.547 12.7441 168.212 15.5198C167.567 16.2858 167.699 17.43 168.518 18.0085C169.971 19.0352 172.414 20.551 175.152 21.3769C176.202 21.6934 177.272 20.9563 177.354 19.8703C177.498 17.9753 177.502 14.9755 176.572 12.1027C176.28 11.2011 175.291 10.7139 174.39 11.0248Z" fill="#F2EC80"/>
</g>
<g id="Group_19">
<path id="Vector_13" d="M193.465 51.1393C192.662 59.1076 189.662 64.3474 186.463 67.7414C185.77 68.4768 185.067 69.1241 184.378 69.6939C184.13 69.8998 183.878 70.0947 183.634 70.2822C180.23 72.8636 177.279 73.5953 177.279 73.5953C177.279 73.5953 183.467 77.1436 182.752 83.9977C182.552 85.9282 181.73 87.4064 180.43 88.5389C180.43 88.5389 180.43 88.5389 180.427 88.5389C177.113 91.4254 170.717 92.0358 163.707 92.0358H119.782C112.109 92.0358 106.577 92.0358 106.577 92.0358C106.577 92.0358 101.577 94.4003 88.2464 94.4003C74.9154 94.4003 50.1567 96.9999 38.729 78.7983C37.8477 77.3974 37.0923 75.8786 36.4591 74.2645C31.0008 60.3467 34.7594 39.3836 48.1682 25.8483C53.3896 20.5753 60.0735 16.4313 68.2499 14.2654C69.5978 13.9087 70.9865 13.6329 72.4084 13.4307C88.5205 11.1289 108.71 18.1484 117.445 21.6342C120.197 22.7337 121.811 23.4838 121.811 23.4838C121.811 23.4838 134.668 9.0623 158.234 11.6657C169.544 12.9122 179.02 18.2881 185.315 25.7856C187.441 28.3191 189.203 31.0953 190.551 34.037C192.988 39.3543 194.061 45.2082 193.465 51.1393Z" fill="#FCA260"/>
</g>
<g id="Group_20" opacity="0.6">
<path id="Vector_14" d="M137.469 68.9549C137.469 68.9549 173.074 75.488 175.613 76.8276C178.152 78.1671 183.469 81.1613 182.675 85.1799C182.675 85.1799 183.469 75.0941 176.168 73.0454C168.868 70.9967 143.127 68.0161 137.469 68.9549Z" fill="white"/>
</g>
<g id="Group_21" opacity="0.6">
<path id="Vector_15" d="M64.2383 44.4824C64.2383 44.4824 74.8344 33.6641 87.4491 36.0903C104.474 39.3647 108.956 55.8057 108.956 55.8057C108.956 55.8057 107.046 34.0455 88.4828 31.6985C74.041 29.8725 64.2383 44.4824 64.2383 44.4824Z" fill="white"/>
</g>
<g id="Group_22">
<path id="Vector_16" d="M117.443 21.6341C116.614 23.9618 115.329 26.0908 113.507 27.7639C110.007 30.9849 104.301 32.0366 100.339 29.3965C97.9613 27.8153 96.2468 25.0538 93.4436 24.4765C91.4365 24.0647 89.4147 24.9031 87.3965 25.2635C83.0269 26.0356 78.3018 24.3552 75.4171 21.0054C73.61 18.9021 72.5694 16.1884 72.4065 13.4306C88.5185 11.1287 108.708 18.1482 117.443 21.6341Z" fill="#C4754B"/>
</g>
<g id="Group_23" opacity="0.6">
<path id="Vector_17" d="M185.313 25.786C176.659 20.0864 160.801 12.0277 143.124 16.1925C127.002 19.9908 122.598 29.1579 122.598 29.1579C122.598 29.1579 75.8539 6.84162 48.166 25.8485C53.3874 20.5756 60.0713 16.4315 68.2477 14.2656C69.5956 13.909 70.9843 13.6332 72.4062 13.431C88.5183 11.1291 108.707 18.1486 117.443 21.6345C120.194 22.7339 121.809 23.484 121.809 23.484C121.809 23.484 134.666 9.06255 158.232 11.6659C169.541 12.9125 179.018 18.2884 185.313 25.786Z" fill="white"/>
</g>
<g id="Group_24">
<path id="Vector_18" d="M154.45 92.0358H119.782C120.701 89.6163 121.8 87.2777 123.419 85.2663C125.822 82.2732 129.64 80.1037 133.447 80.7067C135.779 81.0781 137.927 82.4387 140.29 82.4387C142.9 82.435 145.282 80.7656 147.888 80.7325C151.547 80.6847 154.613 84.1191 154.98 87.7336C155.128 89.1971 154.921 90.6496 154.45 92.0358Z" fill="#C4754B"/>
</g>
<g id="Group_25">
<path id="Vector_19" d="M77.8806 96.0001C64.1711 96.0001 46.7603 94.3699 37.4726 79.5766C31.3997 69.9005 30.9338 54.9612 36.2861 41.5169C42.0296 27.0885 53.541 16.6376 67.8688 12.8441C69.2429 12.4808 70.6995 12.1882 72.1986 11.9745C88.8242 9.60011 109.766 16.9844 117.998 20.2697C119.535 20.8837 120.716 21.3878 121.474 21.7197C122.804 20.4312 125.833 17.7798 130.486 15.3021C136.292 12.2112 145.847 8.81646 158.399 10.2038C169.298 11.4056 179.082 16.3969 185.95 24.2583C192.721 32.01 195.914 41.6083 194.94 51.2854C193.908 61.5385 189.305 67.4339 185.625 70.5743C183.644 72.2647 181.719 73.3584 180.255 74.0384C182.235 75.9008 184.735 79.2729 184.226 84.149C183.366 92.3947 173.372 93.5068 163.708 93.5068H106.876C105.518 94.0432 100.026 95.8711 88.2469 95.8711C86.8736 95.8711 85.366 95.8992 83.7699 95.9286C81.9174 95.9632 79.9401 96.0001 77.8806 96.0001ZM79.1467 14.4498C76.9192 14.4498 74.7305 14.5849 72.6197 14.8863C71.2348 15.0837 69.8933 15.3529 68.6315 15.6864C50.2713 20.5481 42.2113 34.634 39.0409 42.5981C34.0224 55.205 34.3936 69.1091 39.9867 78.0206C49.7802 93.6196 70.1994 93.2386 83.7144 92.9877C85.3247 92.9575 86.8457 92.9291 88.2468 92.9291C100.949 92.9291 105.9 90.7263 105.948 90.704C106.143 90.6149 106.362 90.5648 106.577 90.5648H163.708C175.533 90.5648 180.788 88.5554 181.28 83.8462C181.883 78.0551 176.753 74.9936 176.534 74.8663C176.015 74.5636 175.73 73.9781 175.816 73.3869C175.902 72.7957 176.337 72.3131 176.92 72.1682C177.458 72.031 190.222 68.5788 191.992 50.9928C193.865 32.3825 178.648 15.3962 158.071 13.1274C135.601 10.6453 123.043 24.3219 122.919 24.4604C122.484 24.946 121.777 25.091 121.184 24.8163C121.168 24.8089 119.567 24.0673 116.893 22.9986C109.946 20.2264 93.715 14.4498 79.1467 14.4498Z" fill="#676767"/>
</g>
<g id="Group_26">
<g id="Group_27">
<path id="Vector_20" d="M145.616 20.1118C145.616 20.1118 138.991 7.38014 131.174 8.92289C124.786 10.1837 120.541 28.7792 120.7 33.6644" fill="#FCA260"/>
</g>
<g id="Group_28" opacity="0.6">
<path id="Vector_21" d="M145.449 19.3368C142.353 15.8031 137.358 11.5267 131.855 12.4608C126.704 13.3321 122.749 22.5029 120.861 29.6879C121.875 22.5506 125.723 9.33522 131.074 8.27618C138.432 6.82733 144.731 18.0131 145.449 19.3368Z" fill="white"/>
</g>
<g id="Group_29">
<path id="Vector_22" d="M144.986 19.7884C143.545 18.4174 142.437 16.8649 141.274 15.3771C140.093 13.906 138.786 12.5413 137.336 11.469C135.891 10.4053 134.287 9.64311 132.713 9.58555C132.516 9.56655 132.322 9.59574 132.126 9.59408C131.931 9.59879 131.739 9.64429 131.545 9.66301C131.437 9.6696 131.379 9.70227 131.301 9.72113L131.075 9.78029C130.924 9.86177 130.768 9.90491 130.613 10.001C129.989 10.3553 129.375 10.9449 128.816 11.616C128.254 12.2887 127.752 13.0642 127.292 13.8706C126.829 14.6768 126.406 15.5226 126.021 16.3919C125.241 18.1256 124.573 19.9361 123.987 21.7741C123.402 23.6142 122.918 25.4902 122.487 27.3738C122.056 29.252 121.583 31.1435 121.24 33.0002L121.234 33.0296C121.18 33.3242 120.895 33.5193 120.598 33.4652C120.371 33.4237 120.203 33.247 120.161 33.0347C119.957 31.9907 119.954 30.9681 119.989 29.9558C120.034 28.9442 120.141 27.9426 120.299 26.951C120.629 24.9708 121.092 23.0203 121.62 21.0823C122.167 19.149 122.774 17.2241 123.57 15.3442C123.961 14.4026 124.397 13.4712 124.893 12.5552C125.388 11.6393 125.937 10.7351 126.618 9.87363C127.297 9.01563 128.101 8.18046 129.193 7.53883C129.459 7.37565 129.775 7.25284 130.068 7.11705C130.227 7.06372 130.392 7.01725 130.555 6.97024C130.716 6.92717 130.892 6.86947 131.033 6.85615C131.33 6.81683 131.626 6.75505 131.925 6.7418C132.224 6.73625 132.526 6.70566 132.824 6.72869C134.021 6.77432 135.173 7.0796 136.212 7.52621C137.255 7.97497 138.19 8.56777 139.048 9.21696C140.761 10.5257 142.177 12.069 143.443 13.6888C144.075 14.5004 144.676 15.3321 145.155 16.2381C145.635 17.1454 146.037 18.0793 146.247 19.141C146.326 19.5385 146.065 19.9241 145.665 20.0022C145.421 20.0497 145.182 19.9725 145.014 19.8153L144.986 19.7884Z" fill="#676767"/>
</g>
<g id="Group_30">
<path id="Vector_23" d="M133.251 9.14896C133.25 9.15242 133.257 9.15193 133.25 9.15422L133.194 9.1724C133.156 9.18654 133.124 9.18911 133.08 9.20977L132.824 9.31803C132.653 9.42157 132.472 9.49064 132.308 9.62698L132.055 9.80542C131.973 9.86963 131.9 9.95133 131.821 10.0223C131.665 10.1683 131.503 10.3053 131.373 10.49C130.776 11.1331 130.365 11.9873 129.965 12.8321C129.229 14.5847 128.888 16.5597 128.641 18.534C128.576 19.5355 128.424 20.529 128.437 21.5458C128.413 22.558 128.355 23.571 128.404 24.5917L128.434 26.123L128.442 26.8905L128.49 27.6576C128.54 28.6825 128.606 29.7076 128.636 30.7404L128.636 30.7649C128.645 31.0514 128.418 31.2902 128.129 31.2984C127.871 31.3056 127.651 31.1256 127.602 30.8825C127.394 29.8604 127.223 28.8307 127.034 27.8008L126.904 27.0268L126.814 26.2462L126.649 24.6809C126.514 23.6392 126.505 22.5821 126.467 21.5264C126.452 20.9983 126.43 20.4705 126.466 19.938L126.54 18.3423C126.735 16.2173 127.041 14.0562 127.92 11.9785C128.394 10.9554 128.916 9.92477 129.752 9.04985C129.937 8.8194 130.174 8.62162 130.406 8.42265C130.524 8.32466 130.633 8.22036 130.759 8.12937L131.152 7.87098C131.403 7.69012 131.708 7.56084 131.996 7.42298C132.151 7.36389 132.314 7.31327 132.472 7.26126C132.55 7.23463 132.648 7.21805 132.735 7.19759L132.869 7.16936C132.926 7.15952 132.997 7.15072 133.06 7.14385C133.332 7.11417 133.577 7.30952 133.607 7.58005C133.614 7.63831 133.61 7.69524 133.597 7.74913L133.251 9.14896Z" fill="#676767"/>
</g>
</g>
<g id="Group_31">
<path id="Vector_24" d="M132.893 15.9325C132.523 18.0886 132.231 21.4667 132.752 25.8493C132.908 27.1633 134.42 27.8374 135.512 27.0797C137.14 25.9506 139.227 24.2217 140.464 22.1128C140.786 21.5639 140.795 20.8869 140.471 20.3392C139.798 19.2036 138.343 17.0907 135.786 14.9139C134.744 14.0274 133.124 14.5898 132.893 15.9325Z" fill="#F2EC80"/>
</g>
<g id="Group_32">
<path id="Vector_25" d="M153.646 51.254C156.391 51.0355 158.366 47.7611 158.058 43.9404C157.749 40.1196 155.274 37.1994 152.529 37.4179C149.784 37.6364 147.809 40.9108 148.118 44.7315C148.426 48.5522 150.901 51.4724 153.646 51.254Z" fill="#676767"/>
</g>
<g id="Group_33">
<path id="Vector_26" d="M151.47 45.8603C152.167 45.8049 152.634 44.5502 152.513 43.0578C152.393 41.5655 151.73 40.4007 151.033 40.4562C150.336 40.5117 149.869 41.7664 149.99 43.2587C150.11 44.751 150.773 45.9158 151.47 45.8603Z" fill="white"/>
</g>
<g id="Group_34" opacity="0.35">
<path id="Vector_27" d="M155.172 48.679C155.673 48.7754 156.286 47.7917 156.542 46.4819C156.798 45.1721 156.599 44.0322 156.099 43.9358C155.598 43.8394 154.985 44.823 154.729 46.1328C154.473 47.4426 154.672 48.5826 155.172 48.679Z" fill="white"/>
</g>
<g id="Group_35">
<path id="Vector_28" d="M180.093 46.5243C182.407 46.3402 184.072 43.5797 183.812 40.3587C183.552 37.1377 181.466 34.6759 179.152 34.8601C176.838 35.0443 175.173 37.8047 175.433 41.0257C175.693 44.2467 177.779 46.7085 180.093 46.5243Z" fill="#676767"/>
</g>
<g id="Group_36">
<path id="Vector_29" d="M178.26 41.9754C178.848 41.9287 179.242 40.8709 179.14 39.6128C179.039 38.3547 178.48 37.3727 177.893 37.4195C177.305 37.4662 176.911 38.524 177.013 39.7821C177.114 41.0402 177.673 42.0222 178.26 41.9754Z" fill="white"/>
</g>
<g id="Group_37" opacity="0.35">
<path id="Vector_30" d="M181.386 44.352C181.808 44.4333 182.325 43.604 182.541 42.4998C182.757 41.3955 182.589 40.4345 182.167 40.3532C181.745 40.2719 181.228 41.1012 181.013 42.2054C180.797 43.3097 180.964 44.2707 181.386 44.352Z" fill="white"/>
</g>
<g id="Group_38">
<path id="Vector_31" d="M161.732 49.5153C161.927 49.839 162.207 50.1982 162.495 50.4873C162.786 50.7845 163.109 51.0386 163.448 51.2394C164.131 51.6388 164.873 51.7971 165.606 51.7119C165.971 51.6717 166.344 51.5789 166.693 51.4438C167.038 51.3079 167.345 51.1315 167.607 50.922C167.867 50.7112 168.082 50.466 168.249 50.1979C168.332 50.0641 168.402 49.9234 168.459 49.7835C168.486 49.7134 168.511 49.6433 168.529 49.5771C168.539 49.5439 168.546 49.512 168.552 49.4835C168.555 49.4697 168.557 49.4559 168.558 49.4461C168.557 49.4433 168.563 49.4105 168.547 49.4563L168.547 49.4573L171.049 48.825C171.042 48.8313 171.097 48.8959 171.126 48.934L171.241 49.0692C171.321 49.1585 171.405 49.2485 171.493 49.332C171.668 49.5019 171.853 49.6558 172.041 49.7846C172.419 50.0447 172.793 50.2006 173.145 50.2205C173.494 50.2411 173.891 50.1062 174.276 49.7866C174.663 49.4775 175.012 49.0247 175.312 48.5286L175.318 48.5179C175.494 48.2263 175.875 48.1316 176.169 48.3065C176.421 48.4567 176.527 48.7575 176.44 49.0241C176.233 49.6566 175.963 50.2981 175.505 50.9029C175.066 51.5022 174.352 52.0776 173.458 52.2802C172.569 52.4856 171.679 52.3235 170.941 52.0473C170.567 51.9081 170.219 51.7375 169.888 51.5448C169.722 51.4493 169.562 51.3461 169.403 51.238C169.324 51.1833 169.245 51.1269 169.166 51.0678C169.08 51.0007 169.021 50.9602 168.906 50.8554L171.408 50.2231L171.407 50.2247C171.376 50.3261 171.364 50.3481 171.344 50.3999L171.29 50.5254C171.253 50.6047 171.216 50.6797 171.178 50.7517C171.102 50.8964 171.02 51.0328 170.935 51.1645C170.761 51.4263 170.57 51.6704 170.36 51.8955C169.94 52.3452 169.448 52.7195 168.92 53.0003C168.391 53.2803 167.832 53.4672 167.279 53.5752C166.729 53.6781 166.174 53.7211 165.608 53.685C164.474 53.6239 163.364 53.1547 162.55 52.4566C162.14 52.108 161.79 51.7138 161.496 51.2921C161.2 50.8621 160.965 50.4429 160.766 49.9286C160.662 49.6596 160.797 49.3579 161.068 49.2544C161.31 49.1621 161.578 49.2597 161.707 49.4736L161.732 49.5153Z" fill="#676767"/>
</g>
<g id="Group_39">
<path id="Vector_32" d="M170.775 49.2035C170.375 49.7412 169.671 49.9546 169.037 49.73C167.937 49.3405 166.379 48.6083 166.534 47.624C166.733 46.3701 170.733 45.6976 171.474 46.4125C172.153 47.0675 171.411 48.3506 170.775 49.2035Z" fill="#676767"/>
</g>
<g id="Group_40">
<path id="Vector_33" d="M176.821 74.9952C176.462 74.8852 176.03 74.7685 175.623 74.6617L174.374 74.346C173.533 74.1458 172.69 73.9508 171.839 73.7746C170.139 73.4154 168.424 73.1036 166.706 72.7937C163.266 72.1931 159.791 71.752 156.311 71.3391C152.829 70.9281 149.331 70.6286 145.827 70.3585C144.076 70.2228 142.321 70.1125 140.567 69.9457C138.812 69.815 137.056 69.6711 135.297 69.4588L135.287 69.4576C135.003 69.4234 134.801 69.1674 134.836 68.8861C134.866 68.6395 135.068 68.4551 135.308 68.4363C137.078 68.2969 138.849 68.218 140.621 68.1665C142.393 68.1451 144.166 68.14 145.939 68.1829L148.597 68.2765L149.926 68.3263L151.254 68.3997L153.912 68.548L156.568 68.7536C160.109 69.0365 163.644 69.4359 167.17 69.967L169.812 70.3935C170.69 70.5639 171.569 70.712 172.446 70.9012C173.323 71.0772 174.199 71.2739 175.076 71.477C175.515 71.5854 175.952 71.6918 176.391 71.8106C176.836 71.9316 177.255 72.0457 177.738 72.1979C178.517 72.4436 178.949 73.2703 178.702 74.0445C178.455 74.8149 177.63 75.243 176.853 75.0051L176.821 74.9952Z" fill="#676767"/>
</g>
<g id="Group_41">
<path id="Vector_34" d="M61.6873 47.7828C62.2908 46.2626 63.0814 44.8684 63.9557 43.5082C64.3959 42.8319 64.8613 42.1706 65.354 41.5285L66.1084 40.5759L66.9068 39.6572C67.9884 38.4447 69.1798 37.324 70.4453 36.2844C71.7151 35.2504 73.0627 34.2949 74.5086 33.4851C75.9561 32.6793 77.4871 32.007 79.08 31.4934C80.6772 30.9872 82.3405 30.6914 84.0149 30.5432L85.2752 30.4867C85.4855 30.4718 85.6955 30.4749 85.9052 30.4857L86.5351 30.5075C87.3786 30.5093 88.2076 30.6395 89.0424 30.7309C89.4593 30.7801 89.865 30.8826 90.2771 30.9566C90.6851 31.0458 91.1045 31.0992 91.5017 31.2247C92.3014 31.4564 93.1202 31.6438 93.8915 31.9501L95.0634 32.3745C95.451 32.5281 95.8308 32.7144 96.2148 32.8837L96.789 33.1443C96.979 33.2342 97.1601 33.3433 97.3459 33.4422L98.4524 34.0544C99.8882 34.9437 101.233 35.9792 102.453 37.1488C104.856 39.5255 106.71 42.4047 107.962 45.4719C109.249 48.5339 109.971 51.7687 110.357 55.0043C110.548 56.6246 110.649 58.2509 110.67 59.8784C110.674 60.6923 110.663 61.5062 110.624 62.3215C110.604 62.7294 110.581 63.1373 110.548 63.547C110.515 63.9641 110.482 64.3512 110.424 64.8078L110.232 63.867L110.232 63.8672C110.424 64.1969 110.566 64.4684 110.722 64.7687C110.873 65.062 111.017 65.3567 111.159 65.6516C111.438 66.2432 111.702 66.8398 111.948 67.4433C112.443 68.6493 112.868 69.8834 113.224 71.1416C113.936 73.6562 114.347 76.2866 114.315 78.96C114.297 80.296 114.138 81.6403 113.854 82.9634C113.774 83.2926 113.715 83.6266 113.614 83.9515L113.317 84.9273C113.077 85.5644 112.854 86.2105 112.542 86.8191C112.266 87.4452 111.906 88.0274 111.565 88.6188C111.38 88.9055 111.18 89.1824 110.987 89.464C110.889 89.6035 110.795 89.746 110.693 89.8825L110.37 90.2782C109.538 91.3624 108.536 92.2817 107.521 93.1669C106.907 93.7028 105.971 93.6426 105.431 93.0327C104.892 92.4227 104.952 91.4939 105.567 90.9581L105.63 90.9024C106.499 90.1379 107.359 89.3576 108.051 88.4473L108.324 88.1162C108.409 88.0019 108.486 87.8823 108.568 87.7658C108.728 87.5304 108.896 87.3002 109.051 87.0617C109.331 86.5679 109.636 86.0867 109.862 85.5648C110.125 85.0608 110.305 84.5197 110.509 83.9896L110.758 83.172C110.844 82.9004 110.89 82.6163 110.959 82.3394C111.198 81.2212 111.338 80.073 111.353 78.9106C111.38 76.5858 111.022 74.2279 110.372 71.9355C110.047 70.7893 109.657 69.6558 109.202 68.5485C108.976 67.9944 108.734 67.447 108.48 66.9074C108.351 66.6392 108.22 66.3716 108.085 66.1092C107.953 65.8543 107.803 65.5722 107.68 65.3615V65.3614C107.508 65.0665 107.448 64.7378 107.487 64.4239L107.488 64.4204C107.527 64.0946 107.562 63.6959 107.588 63.3268C107.616 62.9504 107.636 62.571 107.653 62.1913C107.688 61.4315 107.688 60.668 107.689 59.9053C107.675 58.3794 107.585 56.8538 107.412 55.3414C107.239 53.8291 106.982 52.3299 106.632 50.8585C106.275 49.3891 105.821 47.9502 105.266 46.5587C104.17 43.7683 102.558 41.216 100.487 39.1087C99.4333 38.0743 98.2713 37.1552 97.0227 36.3561L96.055 35.8059C95.8922 35.7167 95.7352 35.6171 95.5679 35.5357L95.0614 35.2996C94.7215 35.1454 94.3915 34.9753 94.0439 34.8325L92.9859 34.4255C92.2877 34.1264 91.5569 33.9478 90.8384 33.7186C90.4808 33.5941 90.1088 33.5426 89.744 33.4532C89.3767 33.3793 89.0129 33.2754 88.6423 33.2243C87.9007 33.1294 87.1607 32.9902 86.4131 32.9751L85.8533 32.942C85.6666 32.9273 85.4799 32.9197 85.2934 32.9299L84.1732 32.9542C82.6843 33.0543 81.1989 33.2795 79.757 33.7007C78.3189 34.1297 76.9197 34.7041 75.5793 35.4097C72.9028 36.8396 70.5013 38.7918 68.3464 40.988C67.8128 41.5433 67.2834 42.1043 66.7648 42.6779C66.2577 43.2609 65.744 43.8415 65.2552 44.4442C64.2712 45.6397 63.3164 46.8899 62.4311 48.1563L62.4202 48.1718C62.2885 48.3604 62.0278 48.4071 61.838 48.2762C61.6753 48.1643 61.6176 47.958 61.6873 47.7828Z" fill="#676767"/>
</g>
<g id="Group_42">
<path id="Vector_35" d="M107.665 65.3339C107.664 65.3273 107.628 65.2668 107.607 65.2274C107.584 65.1849 107.55 65.1343 107.522 65.0881C107.466 64.9936 107.397 64.8974 107.333 64.8014C107.198 64.6115 107.06 64.4177 106.905 64.236C106.608 63.861 106.266 63.5219 105.918 63.1888C105.204 62.5434 104.397 62.0037 103.52 61.6009C102.642 61.2005 101.69 60.9623 100.711 60.8508C99.7257 60.7234 98.7311 60.7758 97.7651 60.9811C95.8277 61.3888 94.0323 62.4768 92.5529 63.9421C91.8179 64.6819 91.1542 65.5055 90.5479 66.3776C89.9447 67.2534 89.422 68.1896 88.9295 69.1449L88.9234 69.1569C88.8006 69.395 88.5066 69.4891 88.2669 69.3672C88.0393 69.2515 87.9431 68.981 88.0387 68.7503C88.4678 67.7236 88.9338 66.7052 89.4974 65.7282C90.0647 64.7543 90.7054 63.8118 91.4495 62.9338C92.2016 62.0632 93.0623 61.2636 94.0369 60.5913C95.0091 59.9176 96.1051 59.3874 97.2686 59.0499C98.4309 58.7121 99.6592 58.5616 100.866 58.6258C102.075 58.6733 103.301 58.8873 104.461 59.3169C105.618 59.7481 106.705 60.3649 107.676 61.1228C108.152 61.5122 108.619 61.9162 109.039 62.3707C109.255 62.5918 109.455 62.8294 109.655 63.0722C109.753 63.1967 109.852 63.3165 109.947 63.4506C109.995 63.518 110.042 63.5782 110.091 63.6518C110.141 63.7283 110.181 63.7818 110.249 63.894L110.539 64.3766C110.978 65.1069 110.738 66.0525 110.002 66.4886C109.267 66.9247 108.314 66.6863 107.875 65.9559C107.758 65.7619 107.689 65.5449 107.665 65.3339Z" fill="#676767"/>
</g>
<g id="Group_43">
<path id="Vector_36" d="M96.4372 74.8893C97.4708 74.6961 98.0819 73.3435 97.8022 71.8681C97.5225 70.3928 96.4579 69.3534 95.4242 69.5466C94.3906 69.7398 93.7795 71.0925 94.0592 72.5678C94.3389 74.0432 95.4035 75.0825 96.4372 74.8893Z" fill="#676767"/>
</g>
<g id="Group_44">
<path id="Vector_37" d="M101.929 73.6018C102.981 73.6018 103.833 72.3847 103.833 70.8834C103.833 69.3821 102.981 68.165 101.929 68.165C100.877 68.165 100.024 69.3821 100.024 70.8834C100.024 72.3847 100.877 73.6018 101.929 73.6018Z" fill="#676767"/>
</g>
<g id="Group_45">
<path id="Vector_38" d="M106.784 73.4625C107.629 73.606 108.483 72.7446 108.69 71.5385C108.898 70.3324 108.382 69.2383 107.537 69.0948C106.692 68.9513 105.838 69.8127 105.631 71.0188C105.423 72.2249 105.939 73.319 106.784 73.4625Z" fill="#676767"/>
</g>
<g id="Group_46">
<path id="Vector_39" d="M102.806 81.9095C105.144 81.7161 106.137 82.3977 107.329 81.358C108.956 79.9397 107.166 74.9362 101.929 75.6847C96.8671 76.4082 95.6248 81.0033 97.5293 82.6187C99.4336 84.234 100.426 82.1065 102.806 81.9095Z" fill="#676767"/>
</g>
<g id="Group_47">
<g id="Group_48">
<path id="Vector_40" d="M136.21 47.6601L116.941 46.6538C116.735 46.6431 116.578 46.4691 116.588 46.2653C116.599 46.0689 116.763 45.9165 116.958 45.9151L136.254 45.822C136.765 45.8196 137.182 46.2293 137.184 46.7372C137.187 47.2451 136.774 47.6588 136.263 47.6613C136.246 47.6615 136.226 47.6609 136.21 47.6601Z" fill="#676767"/>
</g>
<g id="Group_49">
<path id="Vector_41" d="M136.938 54.6471L118.126 57.1746C117.906 57.2042 117.704 57.0511 117.674 56.8328C117.646 56.6222 117.789 56.4275 117.997 56.3874L136.639 52.8326C137.141 52.7368 137.627 53.0635 137.723 53.5622C137.82 54.061 137.491 54.5431 136.988 54.6387C136.972 54.642 136.954 54.6449 136.938 54.6471Z" fill="#676767"/>
</g>
<g id="Group_50">
<path id="Vector_42" d="M139.58 61.3656L122.708 66.3655C122.522 66.4203 122.327 66.3157 122.272 66.132C122.219 65.9557 122.315 65.7703 122.486 65.7068L138.993 59.622C139.473 59.4451 140.006 59.688 140.184 60.1642C140.362 60.6403 140.117 61.1697 139.638 61.3466C139.619 61.3532 139.599 61.3601 139.58 61.3656Z" fill="#676767"/>
</g>
</g>
<g id="Group_51">
<g id="Group_52">
<path id="Vector_43" d="M187.139 37.7837L205.73 32.6532C205.934 32.5967 206.146 32.7156 206.203 32.9188C206.258 33.1146 206.148 33.3176 205.956 33.3825L187.685 39.5407C187.2 39.7039 186.675 39.4463 186.51 38.9654C186.346 38.4845 186.605 37.9623 187.09 37.7989C187.105 37.7937 187.123 37.7882 187.139 37.7837Z" fill="#676767"/>
</g>
<g id="Group_53">
<path id="Vector_44" d="M188.687 44.6338L207.604 43.0589C207.805 43.0422 207.982 43.1903 207.998 43.3898C208.015 43.5817 207.876 43.7513 207.687 43.7787L188.896 46.4605C188.389 46.5327 187.92 46.1838 187.847 45.681C187.775 45.1782 188.126 44.7121 188.632 44.6398C188.65 44.6374 188.67 44.6353 188.687 44.6338Z" fill="#676767"/>
</g>
<g id="Group_54">
<path id="Vector_45" d="M188.281 51.8032L205.829 53.2599C205.991 53.2732 206.11 53.4137 206.097 53.5737C206.084 53.7262 205.953 53.8414 205.802 53.84L188.193 53.6396C187.681 53.6338 187.271 53.2173 187.277 52.7094C187.283 52.2014 187.702 51.7943 188.214 51.8001C188.236 51.8004 188.26 51.8016 188.281 51.8032Z" fill="#676767"/>
</g>
</g>
</g>
<g id="Group_55" opacity="0.2">
<path id="Vector_46" d="M184.004 69.5945L180.69 72.0986L183.634 70.2821L184.519 69.7343C185.785 70.113 189.244 71.2897 192.143 73.5547C189.877 74.4777 187.733 76.1986 187.514 79.4161C187.233 83.5712 190.518 85.4612 193.25 86.3106C189.762 87.9837 184.296 88.4433 180.43 88.5389C180.43 88.5389 180.43 88.5389 180.427 88.5389C177.112 91.4255 170.717 92.0359 163.707 92.0359H119.782C112.109 92.0359 106.576 92.0359 106.576 92.0359C106.576 92.0359 101.577 94.4003 88.2463 94.4003C74.9153 94.4003 50.1566 96.9999 38.7289 78.7983C37.8476 77.3974 37.0922 75.8786 36.459 74.2645C36.459 74.2645 51.1083 86.3217 77.5334 86.3217C103.958 86.3217 110.191 74.3159 110.646 68.1642C110.646 68.1642 119.074 74.5439 118.064 84.472C118.064 84.472 168.01 88.892 172.617 86.3217C179.183 82.6582 177.278 76.197 170.383 74.1624C169.587 73.9275 168.835 73.5584 168.014 73.4379L137.467 68.9548C138.882 69.1019 164.17 71.6023 174.661 64.8511C184.937 58.2323 189.422 51.5142 190.551 34.0371C192.988 39.3542 194.062 45.2081 193.465 51.1392C192.662 59.1075 189.662 64.3473 186.463 67.7413L184.004 69.5945Z" fill="#676767"/>
</g>
<g id="Group_56" opacity="0.2">
<path id="Vector_47" d="M94.6719 33.6479C94.6719 33.6479 111.812 51.2192 90.0293 66.0362C90.0293 66.0362 101.86 50.2032 110.645 68.1643L109.152 58.7149C109.152 58.7149 112.839 44.4827 94.6719 33.6479Z" fill="#676767"/>
</g>
</g>
</svg>
