<svg width="152" height="56" viewBox="0 0 152 56" fill="none" xmlns="http://www.w3.org/2000/svg">
<g id="Logo">
<path id="Vector" d="M32.3783 3.57144C31.9258 3.70747 31.2319 3.97955 30.8246 4.20628C29.8291 4.75043 28.2905 6.18639 27.6871 7.12355C27.4156 7.53166 27.1592 7.87931 27.1139 7.87931C27.0686 7.87931 26.6614 7.69793 26.1938 7.4712C25.4395 7.09332 25.1831 7.04797 23.8255 7.04797C22.3473 7.04797 22.2719 7.06309 21.0199 7.68282C16.7359 9.81408 14.9258 14.394 14.1867 25.0353C13.7191 31.9279 13.6286 32.7743 13.3571 33.8777C12.7386 36.2962 10.3101 43.083 7.50438 50.2326L7.39059 50.5225C6.93795 51.6759 7.7883 52.9231 9.0273 52.9231H23.3127H38.9604C39.6923 52.9231 40.3477 52.4697 40.6057 51.7848L40.735 51.4418C43.8725 43.2493 43.963 43.0376 50.4341 32.3964C52.2442 29.4187 52.4856 28.799 52.742 26.6979C53.0739 24.0528 52.2744 21.4983 50.6906 19.9867C50.2531 19.5635 49.6347 19.11 49.333 18.9589C49.011 18.8065 48.8278 18.4603 48.8829 18.1084L48.9106 17.931C48.971 17.5229 49.0162 16.3893 49.0162 15.437C48.986 12.9581 48.3676 11.3559 46.9497 10.0408C45.2602 8.48393 43.1484 8.12116 40.8858 9.02808C40.4031 9.22458 39.9657 9.36062 39.9355 9.33039C39.9053 9.30016 39.7847 8.8467 39.664 8.31766C39.2115 6.35266 37.884 4.59928 36.3002 3.85863C35.2594 3.35982 33.57 3.2389 32.3783 3.57144ZM34.4599 7.65258C35.0935 8.19674 35.2896 8.89204 35.184 10.4338C34.9728 14.0162 32.8459 16.1172 30.719 14.8173C30.4626 14.6661 30.1157 14.3185 29.9347 14.0464C29.0296 12.5802 30.4023 8.95251 32.318 7.72816C33.1928 7.16889 33.8415 7.13866 34.4599 7.65258ZM23.8406 11.3861C24.4289 11.8547 24.6703 12.55 24.6703 13.8348C24.6703 16.4346 23.373 18.6868 21.6987 19.0042C21.0349 19.1251 19.8735 18.5508 19.4209 17.8555C18.4405 16.4044 19.798 12.7465 21.759 11.507C22.6037 10.9628 23.2674 10.9326 23.8406 11.3861ZM44.4306 12.8372C45.758 14.1673 45.1999 17.9613 43.435 19.6844C42.4546 20.6367 40.5389 20.3797 39.845 19.2007C39.5131 18.6415 39.4981 17.1299 39.8148 16.2532C40.3428 14.7417 41.3685 13.3208 42.3942 12.7011C43.0881 12.2628 43.9177 12.3232 44.4306 12.8372ZM35.184 21.5738C36.1644 22.0424 37.2354 23.2214 37.5522 24.1737C37.7332 24.7027 37.7785 25.398 37.7483 26.8491L37.727 28.2356C37.7212 28.6114 37.836 28.9791 38.0545 29.2848L38.593 30.0384C39.5584 31.4139 39.9053 32.2453 39.9053 33.1824C39.9053 35.2835 38.0047 37.3089 35.7421 37.5961C35.2141 37.6566 34.7013 37.6112 34.0828 37.4298C33.2532 37.2031 33.0571 37.0368 31.3827 35.3137C29.7235 33.6208 29.5123 33.4545 28.8033 33.2882C28.1245 33.122 27.8078 33.1371 26.4351 33.4243C25.0775 33.7115 24.7155 33.7266 24.0216 33.5754C20.5523 32.865 19.3003 28.5874 21.7892 25.9724C22.7244 24.9748 23.2825 24.7783 25.515 24.6574C27.9586 24.5364 28.5016 24.3097 29.7235 22.904C30.5682 21.9517 31.3677 21.4076 32.2878 21.1657C32.9968 20.9843 34.3242 21.1808 35.184 21.5738ZM48.2168 23.9923C49.0162 24.7178 49.2274 26.8944 48.6391 28.6327C47.8095 31.1721 46.1502 32.215 44.506 31.2477C43.2088 30.4768 43.0278 28.799 44.0384 26.6677C45.1697 24.2946 47.1458 23.0249 48.2168 23.9923Z" fill="#888888"/>
<path id="Union" fill-rule="evenodd" clip-rule="evenodd" d="M80.719 5.6001H73.5421L69.9153 14.9808L67.1953 6.13645L60.3405 6.40463L60.0784 24.8705L66.2394 24.6844L66.2613 16.0262L68.3696 23.4804H70.7182L73.4656 15.145L73.411 25.4835L79.4901 25.2153L80.719 5.6001ZM94.3193 5.81354H82.0245L81.5984 25.084L93.0903 24.8158C93.1377 23.8452 93.1887 22.8765 93.2433 21.9096C93.3015 20.9427 93.358 19.9704 93.4126 18.9925H91.064H87.7595L87.8906 17.0387L91.8942 16.9073L92.1837 12.7643H88.2128L88.3439 11.0786L93.997 10.7885C94.0699 9.94931 94.1281 9.12106 94.1718 8.30376C94.2155 7.48281 94.2647 6.65274 94.3193 5.81354ZM110.492 17.9964C110.678 17.2448 110.771 16.4622 110.771 15.6485C110.771 14.3496 110.565 13.1729 110.153 12.1184C109.738 11.0603 109.156 10.1591 108.406 9.41478C107.656 8.6741 106.749 8.10308 105.686 7.70173C104.622 7.30037 103.446 7.0997 102.157 7.0997C101.356 7.0997 100.597 7.21098 99.8795 7.43355C99.1586 7.65612 98.4886 7.96808 97.8695 8.36943C97.2542 8.77079 96.697 9.24694 96.1982 9.79789C95.6993 10.3488 95.2751 10.9545 94.9256 11.6149C94.5723 12.2753 94.3029 12.9777 94.1172 13.722C93.9315 14.4627 93.8386 15.2216 93.8386 15.9988C93.8386 16.7906 93.9388 17.5513 94.139 18.281C94.3393 19.0144 94.6197 19.6985 94.9802 20.3334C95.337 20.9719 95.7722 21.5502 96.2856 22.0683C96.7954 22.5901 97.3652 23.0371 97.9952 23.4092C98.6288 23.7777 99.3079 24.0642 100.032 24.2685C100.757 24.4728 101.52 24.575 102.321 24.575C103.148 24.575 103.929 24.4655 104.664 24.2466C105.403 24.0313 106.086 23.7267 106.712 23.3326C107.339 22.9422 107.903 22.4734 108.406 21.9261C108.908 21.3751 109.334 20.7712 109.684 20.1145C110.037 19.4541 110.306 18.7481 110.492 17.9964ZM104.686 14.8823C104.795 15.2435 104.85 15.6157 104.85 15.9988C104.85 16.3892 104.788 16.7668 104.664 17.1317C104.54 17.4966 104.364 17.8195 104.134 18.1004C103.901 18.3814 103.619 18.6039 103.288 18.7681C102.953 18.936 102.576 19.0199 102.157 19.0199C101.738 19.0199 101.372 18.925 101.059 18.7353C100.743 18.5492 100.479 18.3048 100.267 18.0019C100.053 17.6991 99.8923 17.3616 99.7867 16.9894C99.6775 16.6136 99.6228 16.2378 99.6228 15.862C99.6228 15.4716 99.6866 15.1012 99.814 14.751C99.9378 14.397 100.116 14.0887 100.349 13.826C100.586 13.5633 100.868 13.3572 101.196 13.2076C101.527 13.0543 101.902 12.9777 102.321 12.9777C102.729 12.9777 103.089 13.0653 103.402 13.2404C103.719 13.4119 103.985 13.6381 104.2 13.9191C104.411 14.2 104.573 14.5211 104.686 14.8823ZM147.822 17.9964C148.007 17.2448 148.1 16.4622 148.1 15.6485C148.1 14.3496 147.893 13.1729 147.478 12.1184C147.066 11.0603 146.485 10.1591 145.735 9.41478C144.981 8.6741 144.075 8.10308 143.015 7.70173C141.952 7.30037 140.776 7.0997 139.487 7.0997C138.686 7.0997 137.925 7.21098 137.204 7.43355C136.486 7.65612 135.818 7.96808 135.199 8.36943C134.58 8.77079 134.023 9.24694 133.528 9.79789C133.029 10.3488 132.603 10.9545 132.25 11.6149C131.9 12.2753 131.632 12.9777 131.447 13.722C131.257 14.4627 131.163 15.2216 131.163 15.9988C131.163 16.7906 131.263 17.5513 131.463 18.281C131.663 19.0144 131.944 19.6985 132.304 20.3334C132.665 20.9719 133.1 21.5502 133.61 22.0683C134.123 22.5901 134.695 23.0371 135.325 23.4092C135.955 23.7777 136.632 24.0642 137.357 24.2685C138.081 24.4728 138.844 24.575 139.645 24.575C140.472 24.575 141.255 24.4655 141.994 24.2466C142.729 24.0313 143.412 23.7267 144.042 23.3326C144.668 22.9422 145.233 22.4734 145.735 21.9261C146.238 21.3751 146.664 20.7712 147.013 20.1145C147.363 19.4541 147.632 18.7481 147.822 17.9964ZM142.016 14.8823C142.125 15.2435 142.179 15.6157 142.179 15.9988C142.179 16.3892 142.118 16.7668 141.994 17.1317C141.87 17.4966 141.692 17.8195 141.458 18.1004C141.229 18.3814 140.947 18.6039 140.612 18.7681C140.281 18.936 139.905 19.0199 139.487 19.0199C139.068 19.0199 138.7 18.925 138.383 18.7353C138.07 18.5492 137.806 18.3048 137.591 18.0019C137.38 17.6991 137.22 17.3616 137.111 16.9894C137.005 16.6136 136.952 16.2378 136.952 15.862C136.952 15.4716 137.014 15.1012 137.138 14.751C137.262 14.397 137.442 14.0887 137.679 13.826C137.915 13.5633 138.198 13.3572 138.525 13.2076C138.853 13.0543 139.226 12.9777 139.645 12.9777C140.053 12.9777 140.415 13.0653 140.732 13.2404C141.049 13.4119 141.313 13.6381 141.524 13.9191C141.739 14.2 141.903 14.5211 142.016 14.8823ZM124.566 12.3268L130.108 12.8186L127.802 26.0678L121.78 26.1982L121.054 22.1614L120.365 25.6989L114.349 25.9115L112.015 13.1863L117.566 12.6957L118.141 17.2405L118.867 13.283H123.25L124.092 17.2872L124.566 12.3268Z" fill="#FCA260"/>
<g id="Vector_2">
<path d="M90.4025 33.4207H93.398V44.9119H90.4025V33.4207ZM92.0567 40.4543H102.832V43.0975H92.0567V40.4543ZM90.4025 43.7695H100.373V46.3903H90.4025V43.7695ZM99.322 43.7695H102.273C102.273 43.7695 102.25 44.4863 102.228 44.8223C102.072 49.0559 101.848 50.8703 101.312 51.5647C100.865 52.1247 100.373 52.3487 99.7468 52.4383C99.2103 52.5503 98.3608 52.5503 97.4219 52.5503C97.3772 51.7439 97.0865 50.6239 96.6842 49.9295C97.3101 49.9967 97.8466 50.0191 98.1596 50.0191C98.4278 50.0191 98.5843 49.9519 98.7632 49.7503C99.0538 49.3919 99.2103 47.9807 99.322 44.1951V43.7695ZM88.8153 46.5247L91.319 47.2863C90.8943 49.1679 90.2236 50.9599 88.7929 52.1023L86.4904 50.6015C87.6976 49.6607 88.48 48.1375 88.8153 46.5247ZM91.2073 47.6447L93.5321 47.1743C93.8228 48.4063 93.9792 49.9967 93.9345 51.0495L91.4755 51.5423C91.5649 50.5119 91.4532 48.8767 91.2073 47.6447ZM93.8228 47.4655L95.8794 46.9055C96.2818 47.8687 96.6171 49.1679 96.7065 49.9967L94.5158 50.6463C94.471 49.7951 94.1804 48.4511 93.8228 47.4655ZM96.2371 47.2415L98.1819 46.5471C98.629 47.2415 99.0538 48.1823 99.2102 48.8319L97.1536 49.6159C97.0418 48.9663 96.6395 47.9807 96.2371 47.2415ZM92.1014 33.4207H100.73V39.8271H92.1014V37.2735H97.6901V35.9743H92.1014V33.4207ZM93.7333 31.2031L97.556 31.6959C96.9524 32.9503 96.2594 34.1151 95.7676 34.8991L92.9956 34.2943C93.3086 33.3535 93.6216 32.1215 93.7333 31.2031ZM84.0537 33.4207H89.1953V46.7487H84.0537V43.7471H86.2892V36.4223H84.0537V33.4207ZM82.3548 33.4207H85.2162V48.5407H82.3548V33.4207Z" fill="#FCA260"/>
<path d="M69.1431 44.4863H78.1074V47.2191H69.1431V44.4863ZM69.0984 48.8095H78.0627V51.6543H69.0984V48.8095ZM68.8749 31.4719H71.9598V39.2223H68.8749V31.4719ZM75.0448 31.4719H78.1521V39.2223H75.0448V31.4719ZM72.0716 41.5295H75.0448V50.1983H72.0716V41.5295ZM67.6006 40.0959H79.7393V52.3935H76.5872V42.9407H70.5962V52.5279H67.6006V40.0959ZM61.4754 33.1295H66.7735V46.8159H61.4754V43.6575H63.845V36.2655H61.4754V33.1295ZM59.7988 33.1295H62.7497V48.6527H59.7988V33.1295ZM67.1535 33.7791H73.2117V36.7807H67.1535V33.7791ZM73.8376 33.8239H80.4993V36.8031H73.8376V33.8239Z" fill="#FCA260"/>
</g>
</g>
</svg>
