<svg width="254" height="233" viewBox="0 0 254 233" fill="none" xmlns="http://www.w3.org/2000/svg">
<g id="Group">
<g id="Group_2">
<g id="Group_3">
<g id="Group_4">
<g id="Group_5">
<path id="Vector" d="M67.0257 205.551C62.5284 213.122 36.027 221.348 16.6965 200.437C12.9297 196.36 9.94113 191.963 7.69723 187.504C-0.175344 171.902 1.01335 155.584 9.51618 149.984C11.5117 148.666 13.9132 147.941 16.6965 147.955C30.513 148.031 30.2981 160.945 33.2055 174.37V174.375C34.4563 180.118 36.2754 185.957 40.0183 190.922C43.3315 195.315 47.399 197.029 51.1373 197.482C57.0382 198.203 62.1178 195.773 62.1178 195.773L67.0257 205.551Z" fill="#FFEC87"/>
</g>
<g id="Group_6">
<path id="Vector_2" d="M33.2067 174.37V174.375C33.1064 174.929 29.1009 195.94 7.69827 187.504C-2.02186 168.236 2.07433 147.874 16.6975 147.955C30.5139 148.031 30.2992 160.945 33.2067 174.37Z" fill="white"/>
</g>
<g id="Group_7" opacity="0.2">
<path id="Vector_3" d="M67.0257 205.55C62.5284 213.122 36.027 221.348 16.6965 200.437C12.9297 196.36 9.94113 191.963 7.69723 187.504C-0.175344 171.902 1.01335 155.584 9.51618 149.984C6.92377 167.973 14.1328 187.322 28.3837 198.733C31.654 201.353 35.3873 203.626 39.5457 204.142C43.7039 204.652 48.3301 203.034 50.4069 199.396C50.7458 198.799 50.9894 198.155 51.1373 197.482C57.0382 198.203 62.1178 195.772 62.1178 195.772L67.0257 205.55Z" fill="#888888"/>
</g>
<g id="Group_8">
<path id="Vector_4" d="M45.8824 215.614C37.8609 215.614 25.9342 213.242 15.2953 201.734C11.5436 197.673 8.41378 193.174 5.99253 188.362C-0.421115 175.649 -1.26131 161.504 3.9029 153.167C6.74937 148.571 11.2606 146.045 16.6137 146.045C16.6451 146.045 16.6766 146.045 16.7083 146.045C29.9511 146.119 31.8625 156.66 33.886 167.821C34.2496 169.826 34.6256 171.9 35.073 173.966C35.0772 173.986 35.0812 174.005 35.0847 174.025C36.1153 178.744 37.7831 184.783 41.5444 189.772C49.0205 199.689 60.8021 194.282 61.2996 194.047C62.2369 193.605 63.3607 193.989 63.8258 194.916L68.7336 204.694C69.0256 205.275 69.0012 205.966 68.6687 206.526C66.0915 210.865 58.4433 214.513 50.0699 215.396C48.8465 215.525 47.437 215.614 45.8824 215.614ZM16.613 149.864C12.5748 149.864 9.30383 151.7 7.1499 155.178C2.66009 162.426 3.56565 175.072 9.40334 186.644C11.6652 191.139 14.591 195.343 18.1003 199.141C29.6694 211.656 42.8449 212.319 49.6692 211.598C56.9137 210.834 62.5742 207.969 64.8024 205.375L61.1862 198.171C56.9478 199.588 45.9595 201.973 38.4944 192.072C34.2716 186.47 32.4531 179.889 31.3407 174.782C31.336 174.76 31.3319 174.739 31.3278 174.718C30.8722 172.608 30.4938 170.521 30.1278 168.502C27.9762 156.635 26.2911 149.918 16.6871 149.864C16.6625 149.864 16.6376 149.864 16.613 149.864Z" fill="#888888"/>
</g>
</g>
<g id="Group_9">
<path id="Vector_5" d="M238.213 213.79C234.522 217.128 230.273 219.648 225.7 220.847C202.836 226.833 172.143 215.781 170.763 215.323L211.367 197.83C211.367 197.83 218.18 160.076 240.738 167.906C241.311 168.106 241.86 168.321 242.385 168.565C258.407 175.821 252.502 200.881 238.213 213.79Z" fill="white"/>
</g>
<g id="Group_10" opacity="0.2">
<path id="Vector_6" d="M238.213 213.79C234.522 217.128 230.273 219.648 225.7 220.847C202.836 226.833 172.143 215.781 170.763 215.323L211.367 197.83C211.367 197.83 218.18 160.076 240.738 167.906C241.311 168.106 241.86 168.321 242.385 168.565C241.559 179.54 238.069 190.306 232.264 199.649C230.622 202.294 228.717 205.183 229.256 208.243C229.925 212.067 234.327 214.206 238.213 213.79Z" fill="#888888"/>
</g>
<g id="Group_11">
<path id="Vector_7" d="M210.376 224.54C193.303 224.54 176.278 219.243 170.368 217.205L170.16 217.134C169.409 216.883 168.89 216.195 168.856 215.404C168.823 214.612 169.281 213.882 170.009 213.568L209.692 196.472C210.656 191.916 215.123 173.782 226.255 167.272C230.823 164.601 235.908 164.207 241.366 166.101C249.687 168.987 254.241 176.252 253.859 186.031C253.299 200.385 242.046 218.543 226.185 222.694C221.142 224.014 215.756 224.54 210.376 224.54ZM176.195 215.062C186.268 218.084 208.215 223.45 225.218 218.999C239.23 215.332 249.547 198.602 250.043 185.882C250.226 181.192 249.179 172.854 240.114 169.709C235.699 168.178 231.798 168.458 228.188 170.566C217.202 176.984 213.286 197.958 213.247 198.169C213.133 198.798 212.711 199.329 212.124 199.583L176.195 215.062Z" fill="#888888"/>
</g>
<g id="Group_12">
<path id="Vector_8" d="M235.83 170.36C221.594 229.889 150.883 222.68 138.666 220.971C137.501 220.809 136.866 220.694 136.866 220.694C130.006 231.608 103.228 235.365 80.9849 222.632C80.9706 222.623 80.961 222.618 80.961 222.618C66.9393 214.588 54.727 199.993 50.4541 176.5C50.2393 175.316 50.0483 174.141 49.8811 172.976C43.8514 131.131 67.5599 99.9314 81.7009 85.4371C87.4204 79.5791 91.5787 76.4473 91.5787 76.4473C131.763 58.9405 187.549 73.9265 217.23 105.861C217.526 106.181 217.817 106.496 218.108 106.821C233.653 124.017 241.659 145.978 235.83 170.36Z" fill="#FFEC87"/>
</g>
<g id="Group_13">
<path id="Vector_9" d="M126.179 183.455C126.179 183.455 126.06 134.758 176.749 128.467C219.65 123.142 238.46 172.076 219.804 200.374C201.149 228.673 142.702 221.455 143.327 221.514C143.592 221.539 137.166 220.256 137.166 220.256C137.166 220.256 153.271 192.048 126.179 183.455Z" fill="white"/>
</g>
<g id="Group_14">
<g id="Group_15" opacity="0.2">
<path id="Vector_10" d="M77.7299 219.386C77.7299 219.386 77.7394 219.391 77.7537 219.401C99.9966 232.133 126.775 228.376 133.635 217.462C133.635 217.462 134.27 217.577 135.435 217.739C147.652 219.448 218.362 226.657 232.599 167.128C237.984 144.607 231.557 124.154 218.295 107.61C218.229 107.346 218.165 107.082 218.108 106.82C219.206 111.924 222.176 117.471 223.164 121.696C225.126 130.046 225.537 138.769 224.382 147.267C223.078 156.815 219.784 166.106 214.485 174.174C199.351 197.223 168.906 209.001 142.199 202.141C141.13 196.679 138.093 191.623 133.768 188.114C139.445 198.493 132.756 212.482 122.076 217.561C111.396 222.641 98.5108 220.512 87.8166 215.456C70.0902 207.082 57.1284 191.304 49.8811 172.976C50.0483 174.14 50.2391 175.315 50.4541 176.499C53.2187 191.699 59.3091 203.17 67.0604 211.552C70.4137 214.654 74.0067 217.254 77.7299 219.386Z" fill="#888888"/>
</g>
</g>
<g id="Group_16" opacity="0.2">
<path id="Vector_11" d="M217.23 105.861C206.856 125.769 181.553 139.824 151.982 139.824C113.168 139.824 81.7012 115.605 81.7012 85.7282V85.437C87.4206 79.5791 91.5789 76.4472 91.5789 76.4472C131.763 58.9405 187.549 73.9265 217.23 105.861Z" fill="#888888"/>
</g>
<g id="Group_17">
<path id="Vector_12" d="M138.667 220.971C137.502 220.809 136.867 220.694 136.867 220.694C130.007 231.608 103.229 235.365 80.9857 222.632C80.9715 222.623 80.9618 222.618 80.9618 222.618C80.1216 218.364 79.754 214.488 79.7682 210.95C79.8972 180.085 109.215 175.182 109.215 175.182L117.976 183.456C117.976 183.456 128.87 180.796 136.867 189.638C139.068 192.073 140.381 195.019 141.064 198.203C142.658 205.665 140.768 214.43 138.667 220.971Z" fill="white"/>
</g>
<g id="Group_18" opacity="0.2">
<path id="Vector_13" d="M138.666 220.971C137.502 220.809 136.867 220.694 136.867 220.694C130.006 231.608 103.228 235.365 80.9851 222.632C80.9708 222.623 80.9612 222.618 80.9612 222.618C66.9395 214.588 54.7272 199.993 50.4543 176.5C50.2395 175.316 50.0485 174.141 49.8813 172.976C55.9828 188.406 66.1326 202.027 79.7676 210.95C82.3313 212.621 85.0144 214.134 87.8169 215.457C98.511 220.513 111.397 222.642 122.076 217.562C132.756 212.483 139.445 198.494 133.768 188.115C137.029 190.76 139.559 194.288 141.063 198.203C142.658 205.665 140.767 214.43 138.666 220.971Z" fill="#888888"/>
</g>
<g id="Group_19">
<path id="Vector_14" d="M110.877 232.571C100.277 232.572 89.4641 229.686 80.0374 224.29C80.026 224.283 80.0146 224.277 80.0032 224.27C68.3891 217.615 53.5133 203.986 48.5766 176.842C46.0053 162.697 46.6114 148.528 50.3783 134.727C53.3857 123.708 58.402 112.907 65.2882 102.623C76.9956 85.1381 89.8883 75.3308 90.4315 74.9221C90.5507 74.8321 90.6802 74.7567 90.8172 74.6969C108.427 67.0248 130.273 65.1245 152.329 69.3476C173.612 73.4222 193.918 82.8585 209.509 95.9175C221.145 105.665 229.584 116.818 234.589 129.066C240.064 142.464 241.107 156.507 237.689 170.804C237.689 170.805 237.689 170.805 237.689 170.805C234.321 184.886 227.567 196.412 217.614 205.064C209.474 212.14 199.164 217.327 186.97 220.479C165.596 226.005 144.393 223.701 138.403 222.863C138.164 222.829 137.946 222.798 137.751 222.769C133.665 228.137 125.229 231.719 114.827 232.436C113.516 232.526 112.198 232.571 110.877 232.571ZM81.9464 220.982C91.897 226.675 103.48 229.39 114.564 228.626C124.275 227.956 132.202 224.528 135.251 219.678C135.665 219.019 136.437 218.676 137.206 218.815C137.212 218.816 137.827 218.926 138.931 219.08C152.39 220.961 220.217 227.441 233.974 169.916C240.207 143.847 230.647 118.606 207.056 98.8454C174.984 71.9798 126.875 63.2762 92.5587 78.105C90.9939 79.3269 79.0248 88.9356 68.3905 104.854C57.9842 120.431 46.7511 145.446 52.3343 176.159C57.0099 201.866 70.9991 214.712 81.9113 220.961V220.961C81.9229 220.968 81.9346 220.975 81.9464 220.982Z" fill="#888888"/>
</g>
<g id="Group_20">
<path id="Vector_15" d="M135.327 219.566L135.518 219.284C135.588 219.183 135.657 219.071 135.725 218.961C135.865 218.744 136.001 218.52 136.132 218.289C136.405 217.839 136.648 217.362 136.898 216.893C137.372 215.936 137.828 214.965 138.201 213.962C138.971 211.965 139.533 209.893 139.87 207.794C140.216 205.693 140.246 203.563 140.088 201.461L139.915 199.887C139.83 199.366 139.709 198.852 139.61 198.334L139.455 197.557L139.23 196.829C139.071 196.349 138.961 195.849 138.731 195.397C137.976 193.523 136.862 191.79 135.425 190.348C133.998 188.897 132.295 187.705 130.437 186.819C126.722 185.044 122.389 184.485 118.373 185.323C117.61 185.482 116.858 185.165 116.427 184.572L116.413 184.552L116.412 184.552C116.222 184.28 115.95 183.928 115.702 183.619C115.446 183.3 115.181 182.984 114.915 182.669C114.379 182.04 113.811 181.434 113.233 180.838C112.064 179.66 110.825 178.551 109.518 177.539C106.9 175.528 103.981 173.908 100.848 173.01C99.2832 172.564 97.6706 172.285 96.0394 172.215C94.4077 172.167 92.7718 172.322 91.1455 172.619L89.9378 172.909L89.3312 173.054L88.7363 173.245L87.5403 173.626L86.366 174.088C85.5654 174.365 84.8328 174.798 84.0494 175.137C83.2819 175.509 82.5516 175.956 81.7804 176.348L81.7341 176.371C81.4552 176.513 81.1142 176.401 80.9727 176.122C80.8486 175.878 80.9193 175.585 81.1266 175.422C81.8227 174.871 82.5192 174.31 83.2524 173.796C83.6239 173.546 84.0033 173.306 84.3825 173.065C84.5732 172.946 84.7594 172.818 84.9547 172.706L85.5502 172.386L86.747 171.743C87.158 171.551 87.5802 171.382 87.9983 171.201L88.6281 170.933L89.277 170.712C89.7118 170.569 90.147 170.424 90.5864 170.291C92.3625 169.813 94.2042 169.55 96.0624 169.497C97.9213 169.469 99.7836 169.681 101.598 170.089C105.244 170.893 108.609 172.603 111.601 174.711C113.102 175.767 114.514 176.937 115.831 178.206C116.486 178.843 117.129 179.494 117.744 180.175C118.051 180.517 118.354 180.862 118.648 181.22C118.95 181.588 119.22 181.919 119.538 182.357L119.539 182.358L117.578 181.587C122.469 180.571 127.608 181.242 132.085 183.374C134.323 184.442 136.398 185.888 138.157 187.679C139.926 189.459 141.327 191.622 142.268 193.955C142.545 194.524 142.695 195.137 142.889 195.734C142.98 196.035 143.078 196.336 143.161 196.636L143.344 197.529C143.46 198.126 143.595 198.719 143.692 199.318L143.893 201.131C144.079 203.55 144.035 205.994 143.644 208.381C143.262 210.766 142.627 213.1 141.762 215.34C141.342 216.465 140.834 217.555 140.299 218.632C140.015 219.165 139.741 219.699 139.427 220.222C139.276 220.484 139.119 220.746 138.951 221.006C138.869 221.137 138.789 221.266 138.697 221.4C138.607 221.535 138.527 221.657 138.409 221.821C137.792 222.676 136.599 222.869 135.744 222.252C134.905 221.647 134.704 220.486 135.28 219.635L135.327 219.566Z" fill="#888888"/>
</g>
<g id="Group_21">
<path id="Vector_16" d="M118.307 185.335C118.094 185.368 117.749 185.442 117.462 185.513C117.162 185.585 116.858 185.668 116.557 185.758C115.953 185.934 115.355 186.147 114.767 186.38C113.593 186.851 112.459 187.422 111.405 188.101C109.292 189.453 107.513 191.266 106.336 193.444C105.137 195.611 104.561 198.131 104.517 200.708C104.455 203.289 104.869 205.924 105.579 208.494C105.749 209.11 105.387 209.746 104.771 209.916C104.173 210.081 103.554 209.742 103.364 209.158C102.489 206.466 101.894 203.633 101.827 200.709C101.744 197.8 102.265 194.763 103.609 192.041C104.926 189.309 107.025 186.977 109.466 185.256C110.687 184.388 111.989 183.657 113.34 183.041C114.017 182.736 114.704 182.456 115.41 182.214C115.762 182.091 116.118 181.976 116.481 181.87C116.858 181.762 117.181 181.67 117.643 181.574C118.676 181.359 119.688 182.022 119.903 183.055C120.118 184.088 119.455 185.1 118.422 185.315C118.391 185.321 118.36 185.327 118.329 185.332L118.307 185.335Z" fill="#888888"/>
</g>
<g id="Group_22">
<g id="Group_23">
<path id="Vector_17" d="M226.263 76.0839C226.263 111.193 190.949 126.385 152.684 126.385C115.655 126.385 85.4112 112.616 83.492 79.4688C83.4299 78.3612 83.3965 77.2346 83.3965 76.0839C83.3965 66.8985 87.1632 55.9704 93.4557 45.367C92.3051 41.5333 88.5478 27.9175 89.5934 16.7507C90.0517 11.8334 91.4457 7.39332 94.3962 4.47157C101.748 -2.81378 127.219 10.5873 127.405 10.6827C136.385 5.3548 146.048 2.08456 155.673 2.08456C163.946 2.08456 171.738 3.88435 178.875 7.05926C187.287 2.39483 203.247 -1.29084 208.771 3.82706C210.876 5.77495 212.065 9.77089 212.652 14.5308C213.736 23.2006 212.829 34.396 211.85 40.3542C217.202 47.6014 221.002 54.734 223.346 61.265C225.313 66.7123 226.263 71.7443 226.263 76.0839Z" fill="#FFEC87"/>
</g>
<g id="Group_24">
<path id="Vector_18" d="M225.941 77.0927C225.941 112.202 190.626 127.393 152.361 127.393C115.333 127.393 85.0886 113.624 83.1694 80.4775C86.707 77.8947 90.9991 75.5076 95.8114 74.3236C109.389 70.9865 113.398 80.6931 126.419 80.6924C138.881 80.6917 148.088 62.0206 163.328 62.0206C177.199 62.0206 180.825 76.4481 193.104 76.2906C205.379 76.1378 213.542 56.9743 222.503 61.9537C222.675 62.0492 222.852 62.1543 223.024 62.2735C224.991 67.7209 225.941 72.7529 225.941 77.0927Z" fill="white"/>
</g>
<g id="Group_25">
<path id="Vector_19" d="M152.121 129.302C132.345 129.302 115.485 125.392 103.364 117.995C89.4859 109.526 81.9692 96.9399 81.0224 80.5874C80.9568 79.4174 80.9238 78.2425 80.9238 77.0924C80.9238 68.075 84.4358 57.1038 90.8266 46.122C88.4013 37.7826 82.6184 13.8965 92.4896 4.12279C99.9076 -3.22821 120.686 6.43317 126.782 9.51419C136.388 3.98532 145.913 1.18334 155.11 1.18334C163.046 1.18334 170.819 2.78582 178.228 5.94774C186.495 1.69002 203.058 -2.53902 209.506 3.43451C216.334 9.75717 214.586 32.3246 213.297 40.8745C218.324 47.79 222.119 54.7685 224.581 61.6283C226.591 67.1937 227.61 72.3976 227.61 77.0925C227.61 94.0365 219.53 107.852 204.244 117.045C191.102 124.949 172.59 129.302 152.121 129.302ZM100.554 5.21161C98.2172 5.21161 96.3305 5.69359 95.1773 6.83643C88.2585 13.6867 90.6076 32.1215 94.7217 45.8263C94.8751 46.3379 94.8074 46.8907 94.5347 47.3499C88.2204 57.9904 84.743 68.553 84.743 77.0924C84.743 78.1715 84.7742 79.2742 84.8356 80.3702C87.193 121.087 132.676 125.483 152.121 125.483C171.907 125.483 189.719 121.324 202.276 113.772C216.552 105.186 223.791 92.8448 223.791 77.0924C223.791 72.9012 222.821 68.001 220.987 62.922C218.607 56.2898 214.722 49.2282 209.751 42.4968C209.445 42.082 209.319 41.5613 209.403 41.0525C211.3 29.5225 211.503 10.4896 206.91 6.23658C202.604 2.24654 188.095 4.82697 179.238 9.73775C178.714 10.028 178.083 10.0556 177.536 9.81238C170.361 6.62077 162.816 5.0024 155.11 5.0024C146.316 5.0024 137.134 7.80538 127.816 13.3333C127.252 13.6689 126.554 13.6898 125.97 13.3901C118.571 9.53453 107.549 5.21161 100.554 5.21161Z" fill="#888888"/>
</g>
<g id="Group_26">
<path id="Vector_20" d="M118.293 17.8685C118.293 17.8685 103.551 9.48768 99.2538 13.3753C94.9571 17.2628 98.7993 38.47 98.7993 38.47C98.7993 38.47 107.719 26.2654 118.293 17.8685Z" fill="#FF8C9D"/>
</g>
<g id="Group_27">
<path id="Vector_21" d="M186.15 13.8401C186.15 13.8401 197.58 23.9511 204.524 31.636C204.524 31.636 206.387 13.7848 203.501 11.3799C198.591 7.28782 186.15 13.8401 186.15 13.8401Z" fill="#FF8C9D"/>
</g>
<g id="Group_28">
<path id="Vector_22" d="M98.8002 40.3803C98.6579 40.3803 98.5144 40.3643 98.3721 40.3316C97.6279 40.1604 97.0571 39.5626 96.921 38.811C96.881 38.5904 95.9373 33.3422 95.5113 27.5203C94.6913 16.3115 96.5235 13.2713 97.9733 11.9598C103.037 7.37799 116.575 14.6956 119.237 16.2088C119.789 16.5223 120.149 17.0893 120.197 17.7218C120.246 18.3546 119.978 18.9699 119.481 19.3645C109.228 27.5068 100.429 39.4774 100.342 39.5973C99.9773 40.0958 99.4009 40.3803 98.8002 40.3803ZM102.564 14.2347C101.666 14.2347 100.963 14.4054 100.536 14.792C98.6845 16.4668 98.8203 25.2451 99.9953 33.8164C103.104 29.963 108.564 23.6297 114.876 18.2164C110.632 16.1059 105.535 14.2347 102.564 14.2347Z" fill="#888888"/>
</g>
<g id="Group_29">
<path id="Vector_23" d="M204.524 33.5462C203.993 33.5462 203.475 33.3243 203.107 32.9168C196.315 25.4009 184.998 15.3712 184.884 15.2708C184.414 14.8552 184.179 14.2353 184.253 13.6123C184.329 12.9894 184.705 12.4432 185.26 12.1507C186.649 11.4186 198.996 5.13993 204.723 9.91296C205.965 10.9476 207.207 13.2462 207.004 22.452C206.898 27.2386 206.443 31.6491 206.423 31.8344C206.345 32.5841 205.833 33.2177 205.116 33.4517C204.922 33.5153 204.722 33.5462 204.524 33.5462ZM189.562 14.3368C192.572 17.0642 198.197 22.2538 202.986 27.2044C203.46 20.0617 203.186 13.9016 202.246 12.8172C199.907 10.8716 194.006 12.4346 189.562 14.3368Z" fill="#888888"/>
</g>
<g id="Group_30">
<path id="Vector_24" d="M146.621 66.7855H120.84C119.785 66.7855 118.931 65.9306 118.931 64.8759C118.931 63.8211 119.785 62.9663 120.84 62.9663H146.621C147.676 62.9663 148.53 63.8211 148.53 64.8759C148.53 65.9306 147.676 66.7855 146.621 66.7855Z" fill="#888888"/>
</g>
<g id="Group_31">
<path id="Vector_25" d="M202.366 66.7855H176.585C175.531 66.7855 174.676 65.9306 174.676 64.8759C174.676 63.8211 175.531 62.9663 176.585 62.9663H202.366C203.421 62.9663 204.275 63.8211 204.275 64.8759C204.275 65.9306 203.421 66.7855 202.366 66.7855Z" fill="#888888"/>
</g>
<g id="Group_32">
<g id="Group_33">
<path id="Vector_26" d="M159.136 68.25C159.489 66.4853 165.875 66.6349 166.878 67.8601C167.88 69.0854 164.928 72.0814 163.204 72.0776C162.139 72.0753 158.691 70.4777 159.136 68.25Z" fill="#888888"/>
</g>
<g id="Group_34">
<path id="Vector_27" d="M175.21 73.4437C175.043 74.1124 174.814 74.7699 174.485 75.4086L174.234 75.8895L173.933 76.3568C173.836 76.5144 173.715 76.6656 173.597 76.819C173.481 76.9737 173.359 77.1212 173.214 77.2647C172.675 77.8458 171.983 78.4049 171.093 78.7478C170.213 79.102 169.167 79.1835 168.232 79.0192C167.766 78.934 167.319 78.8051 166.922 78.6267C166.726 78.5368 166.522 78.4498 166.334 78.3504L165.791 78.0365C165.096 77.6006 164.52 77.0797 163.992 76.5526C163.475 76.0137 163.013 75.4549 162.612 74.8649C162.411 74.5704 162.216 74.2738 162.039 73.9647C161.852 73.6494 161.706 73.3631 161.522 72.9775L161.521 72.9756L165.031 72.6478C164.651 73.8404 164.178 75.0462 163.421 76.2196C163.042 76.8035 162.586 77.3789 162.016 77.8989C161.453 78.419 160.747 78.8733 159.971 79.1663C159.188 79.4532 158.354 79.5767 157.555 79.556C156.764 79.5162 156.02 79.3552 155.335 79.1233C154.654 78.8862 154.032 78.5797 153.447 78.2353C153.153 78.0635 152.873 77.8796 152.598 77.6823C152.46 77.5867 152.324 77.4811 152.189 77.3781C152.045 77.2635 151.934 77.1764 151.751 77.0132C150.964 76.3121 150.895 75.1062 151.596 74.3196C152.279 73.5538 153.44 73.468 154.227 74.1112L154.326 74.1926L154.544 74.3712C154.635 74.4391 154.722 74.5094 154.818 74.5747C155.004 74.7089 155.199 74.8365 155.396 74.9507C155.789 75.1819 156.191 75.3773 156.583 75.5138C156.975 75.6445 157.35 75.7162 157.694 75.7391C158.032 75.7409 158.333 75.6914 158.621 75.5936C159.182 75.3903 159.738 74.8833 160.217 74.1391C160.698 73.4029 161.078 72.4805 161.384 71.5115C161.698 70.5172 162.758 69.9655 163.753 70.2794C164.114 70.3932 164.416 70.6055 164.64 70.8771L164.894 71.1837L164.894 71.1841L165.355 71.8259L165.858 72.4923C166.203 72.9258 166.551 73.3456 166.917 73.715C167.273 74.0948 167.654 74.4132 168.011 74.6855C168.368 74.9462 168.732 75.1194 169.03 75.2225C169.335 75.3154 169.596 75.3283 169.916 75.2733C170.231 75.2132 170.617 75.0565 171.018 74.7928C171.833 74.2753 172.651 73.4218 173.528 72.5393L173.556 72.5108C173.94 72.125 174.563 72.1229 174.949 72.5062C175.204 72.7594 175.291 73.1188 175.21 73.4437Z" fill="#888888"/>
</g>
<g id="Group_35">
<path id="Vector_28" d="M163.55 85.1844C160.64 85.1844 158.246 82.2463 157.449 77.6986C157.291 76.8007 157.791 75.9167 158.641 75.5882C159.736 75.1648 160.684 73.7552 161.383 71.5118C161.612 70.7759 162.262 70.25 163.029 70.1785C163.794 70.1036 164.531 70.5031 164.893 71.1836C165.35 72.0362 166.907 74.4105 168.58 75.1119C169.38 75.4471 169.853 76.2789 169.733 77.1373C169.061 81.9504 166.576 85.1844 163.55 85.1844ZM161.506 78.3237C162.118 80.4328 163.099 81.3652 163.55 81.3652C164.084 81.3652 165.143 80.1956 165.712 77.8639C164.905 77.307 164.192 76.6219 163.595 75.9418C162.991 76.9391 162.294 77.734 161.506 78.3237Z" fill="#888888"/>
</g>
<g id="Group_36">
<path id="Vector_29" d="M154.717 67.7885C154.99 68.4633 155.141 69.08 155.265 69.7429C155.387 70.3974 155.45 71.0627 155.461 71.7341C155.49 73.0762 155.298 74.4491 154.867 75.7872C154.429 77.1191 153.711 78.4251 152.671 79.4565C151.642 80.4889 150.313 81.2227 148.929 81.432C148.456 81.5034 148.016 81.1784 147.944 80.7062C147.904 80.4415 147.989 80.1867 148.154 80.0014L148.199 79.9512C149.001 79.0611 149.66 78.2782 150.174 77.404C150.7 76.5475 151.107 75.6322 151.452 74.6484C151.783 73.6584 152.032 72.6041 152.232 71.504C152.328 70.9541 152.419 70.3939 152.502 69.8244C152.587 69.2641 152.654 68.6573 152.743 68.1209L152.763 68.0019C152.856 67.4457 153.383 67.0701 153.939 67.1634C154.302 67.224 154.588 67.4708 154.717 67.7885Z" fill="#888888"/>
</g>
</g>
<g id="Group_37">
<path id="Vector_30" d="M160.743 87.7741C160.738 87.7523 160.775 87.7536 160.8 87.7518L160.889 87.7479L161.075 87.7508C161.2 87.7508 161.328 87.7598 161.453 87.7632L162.197 87.7758C162.685 87.7733 163.155 87.7798 163.626 87.7374C164.097 87.6891 164.572 87.6664 165.078 87.6019C165.335 87.5937 165.593 87.5418 165.875 87.5358C166.158 87.522 166.439 87.4748 166.773 87.4995L167.036 87.5189C167.732 87.5703 168.255 88.1765 168.204 88.873C168.185 89.1225 168.096 89.3488 167.957 89.5354C167.492 90.1591 166.875 90.644 166.17 90.9844C165.474 91.3448 164.679 91.5197 163.885 91.583C163.087 91.6441 162.275 91.5469 161.513 91.3125C161.131 91.1986 160.762 91.0372 160.412 90.8451C160.238 90.7376 160.063 90.6462 159.898 90.5164C159.816 90.4566 159.731 90.3944 159.648 90.324L159.37 90.0794C158.733 89.7001 158.524 88.8765 158.904 88.2399C159.283 87.6032 160.107 87.3946 160.743 87.7741Z" fill="#888888"/>
</g>
<g id="Group_38" opacity="0.2">
<g id="Group_39">
<path id="Vector_31" d="M222.797 66.1511C220.54 98.7938 186.319 112.984 149.339 112.984C116.15 112.984 88.4151 101.919 81.6377 75.757C81.6201 76.2102 81.6038 76.663 81.6038 77.1082C81.6038 78.2587 81.6371 79.3854 81.6992 80.493C83.6184 113.64 113.863 127.409 150.891 127.409C189.156 127.409 224.47 112.217 224.47 77.1082C224.47 73.8147 223.92 70.121 222.797 66.1511Z" fill="#888888"/>
</g>
</g>
</g>
<g id="Group_40">
<g id="Group_41">
<path id="Vector_32" d="M88.5103 162.382C97.3377 167.357 106.8 170.465 115.876 172.265C136.476 176.352 155.124 173.707 160.022 170.852C167.083 166.741 162.476 161.151 162.476 161.151C172.297 156.243 165.241 148.26 165.241 148.26C167.694 138.75 150.646 141.381 134.858 138.75C130.313 137.991 126.322 137.056 122.865 136.058C110.93 132.62 105.392 128.467 105.392 128.467" fill="#FFEC87"/>
</g>
<g id="Group_42">
<path id="Vector_33" d="M162.477 161.15C162.477 161.15 167.084 166.741 160.023 170.851C155.125 173.706 136.477 176.351 115.876 172.265C115.876 172.265 110.715 160.95 117.771 144.049C119.944 138.85 122.865 136.057 122.865 136.057C126.322 137.055 130.313 137.991 134.858 138.75C150.646 141.38 167.695 138.75 165.241 148.26C165.241 148.26 172.297 156.242 162.477 161.15Z" fill="white"/>
</g>
<g id="Group_43">
<path id="Vector_34" d="M88.9631 161.579C95.2115 164.844 101.816 167.37 108.611 169.192C112.008 170.104 115.455 170.836 118.931 171.377C122.406 171.924 125.903 172.34 129.414 172.539C132.922 172.757 136.441 172.834 139.947 172.693C143.45 172.562 146.948 172.266 150.376 171.716C152.096 171.46 153.775 171.079 155.422 170.666C156.217 170.419 157.04 170.199 157.765 169.893C157.946 169.818 158.151 169.757 158.313 169.674L158.797 169.428C159.126 169.293 159.431 169.043 159.747 168.842C160.083 168.645 160.335 168.398 160.602 168.165C160.899 167.945 161.066 167.67 161.295 167.428C161.655 166.908 161.959 166.391 162.02 165.829C162.108 165.274 162.062 164.679 161.871 164.063C161.822 163.91 161.778 163.755 161.705 163.603C161.644 163.448 161.575 163.296 161.492 163.147C161.42 162.994 161.326 162.854 161.242 162.708C161.161 162.583 161.036 162.405 161.003 162.365L160.854 162.124C160.307 161.236 160.585 160.072 161.473 159.525C161.521 159.496 161.573 159.467 161.623 159.443C162.669 158.923 163.615 158.293 164.335 157.566C164.704 157.208 164.999 156.819 165.226 156.417C165.455 156.014 165.622 155.598 165.702 155.157C165.874 154.28 165.757 153.296 165.398 152.303C165.22 151.807 164.987 151.311 164.71 150.832C164.57 150.594 164.423 150.358 164.266 150.13L164.026 149.799C163.953 149.701 163.847 149.568 163.81 149.525L163.391 147.783C163.504 147.267 163.615 146.748 163.569 146.34C163.545 145.915 163.462 145.583 163.252 145.284C162.881 144.671 161.954 144.076 160.819 143.679C159.691 143.268 158.413 142.987 157.11 142.767C155.802 142.548 154.458 142.379 153.102 142.236C147.66 141.675 142.053 141.41 136.479 140.509C130.915 139.595 125.453 138.284 120.116 136.496C117.449 135.606 114.835 134.552 112.283 133.36C111.012 132.752 109.76 132.103 108.535 131.398C107.309 130.678 106.129 129.95 104.966 129.034C104.659 128.792 104.606 128.347 104.848 128.039C105.073 127.753 105.474 127.687 105.776 127.874L105.817 127.9C106.918 128.586 108.154 129.233 109.374 129.817C110.597 130.415 111.849 130.961 113.118 131.466C115.642 132.508 118.235 133.388 120.854 134.174C126.092 135.74 131.493 136.847 136.9 137.551C142.313 138.232 147.811 138.378 153.416 138.789C154.82 138.901 156.234 139.031 157.666 139.242C159.099 139.458 160.551 139.731 162.042 140.237C162.412 140.348 162.792 140.527 163.166 140.676C163.354 140.757 163.543 140.864 163.732 140.958C163.92 141.056 164.108 141.148 164.295 141.278C165.045 141.715 165.792 142.386 166.367 143.221C166.501 143.44 166.652 143.649 166.758 143.884C166.861 144.12 166.96 144.36 167.054 144.6C167.187 145.082 167.325 145.591 167.336 146.063C167.431 147.042 167.264 147.904 167.089 148.738L166.671 146.996L166.674 146.999C166.852 147.205 166.946 147.33 167.072 147.494C167.189 147.648 167.3 147.804 167.408 147.96C167.624 148.272 167.825 148.593 168.016 148.92C168.395 149.577 168.726 150.272 168.992 151.01C169.523 152.475 169.784 154.183 169.449 155.892C169.123 157.601 168.179 159.147 167.046 160.256C165.913 161.392 164.627 162.21 163.33 162.859L163.95 159.936L163.95 159.937C164.194 160.246 164.313 160.442 164.473 160.691C164.612 160.931 164.757 161.167 164.874 161.418C165.002 161.663 165.115 161.917 165.216 162.178C165.327 162.433 165.41 162.705 165.491 162.978C165.813 164.066 165.92 165.291 165.7 166.49C165.509 167.71 164.897 168.792 164.217 169.697C163.847 170.112 163.492 170.573 163.072 170.892L162.459 171.412C162.257 171.594 162.034 171.706 161.822 171.856C161.386 172.13 160.983 172.435 160.489 172.65L159.774 172.996C159.536 173.109 159.311 173.175 159.079 173.266C158.152 173.635 157.246 173.863 156.335 174.127C154.52 174.562 152.708 174.921 150.897 175.156C147.275 175.663 143.65 175.893 140.029 175.955C136.408 176.027 132.792 175.874 129.192 175.577C125.59 175.299 122.008 174.8 118.454 174.165C114.898 173.539 111.377 172.715 107.909 171.709C100.975 169.703 94.2394 166.915 88.057 163.186C87.6207 162.923 87.4804 162.356 87.7435 161.92C87.9968 161.5 88.5346 161.356 88.9631 161.579Z" fill="#888888"/>
</g>
</g>
<g id="Group_44">
<g id="Group_45">
<path id="Vector_35" d="M231.329 145.194C227.238 141.098 231.94 138.439 231.94 138.439C231.94 138.439 220.482 137.007 227.238 127.392C227.238 127.392 223.213 128.375 222.325 124.322C222.086 123.238 222.564 122.035 223.552 120.875C228.283 115.313 244.74 110.763 249.948 125.243C250.144 125.783 250.306 126.313 250.445 126.833C254.589 142.287 235.287 149.152 231.329 145.194Z" fill="white"/>
</g>
<g id="Group_46">
<path id="Vector_36" d="M234.873 148.217C232.891 148.217 231.147 147.712 229.978 146.543C227.861 144.426 227.621 142.485 227.792 141.229C227.883 140.56 228.1 139.965 228.381 139.444C226.636 138.735 224.68 137.495 223.734 135.361C222.911 133.505 223.026 131.393 224.072 129.059C223.709 128.933 223.343 128.764 222.986 128.541C222.093 127.984 220.93 126.871 220.46 124.732C219.486 120.295 225.071 116.139 230.82 114.481C238.392 112.3 247.865 113.81 251.744 124.597C254.679 132.756 252.044 140.408 244.698 145.069C241.717 146.96 237.999 148.217 234.873 148.217ZM227.216 125.487C227.848 125.487 228.456 125.798 228.814 126.336C229.251 126.992 229.252 127.845 228.799 128.489C227.701 130.053 226.536 132.245 227.223 133.807C228.019 135.617 231.15 136.411 232.185 136.547C232.999 136.653 233.657 137.269 233.814 138.076C233.971 138.882 233.597 139.699 232.882 140.103C232.585 140.279 231.674 140.978 231.575 141.755C231.483 142.477 232.125 143.289 232.679 143.842C233.612 144.777 238.108 144.726 242.652 141.843C245.403 140.099 251.445 135.051 248.15 125.89C244.392 115.44 234.745 117.325 231.878 118.151C226.655 119.657 223.933 122.738 224.191 123.913C224.446 125.077 225.008 125.371 225.469 125.497C226.129 125.677 226.797 125.534 226.803 125.532C226.941 125.502 227.079 125.487 227.216 125.487Z" fill="#888888"/>
</g>
</g>
</g>
<g id="Group_47">
<g id="Group_48">
<path id="Vector_37" d="M247.843 76.1368C247.843 91.7913 233.744 88.7215 233.744 88.7215C233.744 88.7215 236.657 98.8476 222.85 98.8476C209.038 98.8476 210.112 84.5777 214.562 81.0495H202.593L202.765 78.8773L202.813 78.29L203.357 71.5346H217.321C217.321 71.5346 216.83 71.3627 216.109 70.9855H216.104C214.099 69.9448 210.341 67.3667 210.341 62.6355C210.341 61.7762 210.442 60.9789 210.638 60.2437C211.879 55.4647 216.873 53.2734 221.928 53.2734C223.203 53.2734 224.464 53.4691 225.643 53.8319C229.877 55.1257 233.148 58.5058 232.67 62.4015C232.67 62.4015 233.043 62.3538 233.673 62.3348C235.516 62.2774 239.569 62.4636 242.868 64.7886C245.618 66.7222 247.843 70.1404 247.843 76.1368Z" fill="white"/>
</g>
<g id="Group_49">
<path id="Vector_38" d="M203.359 70.8178L217.323 69.6243L216.69 73.3353L216.689 73.3349C216.495 73.2649 216.397 73.2228 216.259 73.1659L215.885 73.0018C215.642 72.8891 215.404 72.7731 215.17 72.6497C214.702 72.4046 214.247 72.1371 213.805 71.8447C212.923 71.2582 212.083 70.581 211.333 69.7768C210.581 68.9798 209.919 68.0511 209.424 67.0208C208.927 65.9913 208.604 64.862 208.493 63.727C208.383 62.5795 208.428 61.5057 208.647 60.3891C208.862 59.2833 209.262 58.1858 209.851 57.1952C211.024 55.1924 212.881 53.7272 214.828 52.8348C216.789 51.9326 218.863 51.5006 220.92 51.3913C221.93 51.3356 223.032 51.3615 224.08 51.5276C225.135 51.6834 226.169 51.9569 227.166 52.3386C229.152 53.1055 231.027 54.2905 232.484 56.0298C233.207 56.8976 233.814 57.9142 234.197 59.0505C234.384 59.6197 234.516 60.2132 234.582 60.8181C234.64 61.4241 234.632 62.0353 234.564 62.6365L232.509 60.5004C232.852 60.4755 233.08 60.4716 233.357 60.4678C233.621 60.4652 233.882 60.4686 234.142 60.4762C234.662 60.4927 235.178 60.5276 235.693 60.5816C236.722 60.6882 237.747 60.8705 238.763 61.1364C240.787 61.6657 242.794 62.5574 244.525 63.9269C246.26 65.2862 247.639 67.1425 248.472 69.1547C249.322 71.1694 249.664 73.2922 249.74 75.3466C249.803 77.3869 249.641 79.474 249.037 81.5531C248.446 83.6199 247.306 85.6677 245.636 87.2099C243.973 88.7625 241.893 89.7421 239.819 90.2433C238.777 90.4978 237.727 90.6467 236.679 90.7073C236.155 90.7385 235.632 90.7468 235.106 90.7338C234.842 90.7273 234.579 90.7152 234.312 90.6964C234.033 90.6752 233.805 90.6576 233.455 90.6087L235.578 88.1927C235.636 88.4063 235.66 88.5169 235.69 88.6652L235.766 89.0775C235.808 89.3484 235.843 89.6181 235.865 89.8881C235.91 90.4282 235.925 90.971 235.889 91.5197C235.82 92.6132 235.588 93.7348 235.117 94.7936C234.66 95.8549 233.961 96.8336 233.115 97.61C232.272 98.3939 231.308 98.9831 230.328 99.4204C228.354 100.291 226.342 100.586 224.398 100.712C222.488 100.823 220.451 100.756 218.441 100.239C216.438 99.7321 214.421 98.7192 212.879 97.128C211.328 95.5497 210.347 93.4929 209.938 91.427C209.52 89.3504 209.599 87.2464 210.087 85.2247C210.338 84.2132 210.695 83.2181 211.205 82.2556C211.719 81.298 212.383 80.3547 213.374 79.5524L213.374 79.552L214.561 82.9578L202.591 81.662C202.253 81.6253 202.007 81.3207 202.044 80.9818C202.076 80.6879 202.309 80.4648 202.591 80.4344L214.561 79.1386C215.545 79.032 216.429 79.7433 216.535 80.7273C216.588 81.2172 216.439 81.6823 216.154 82.039L215.747 82.5444L215.747 82.5445C215.331 82.8782 214.907 83.4204 214.576 84.0517C214.24 84.6831 213.978 85.3968 213.796 86.1357C213.436 87.617 213.382 89.205 213.681 90.6667C213.974 92.1324 214.63 93.4584 215.613 94.461C216.593 95.4697 217.907 96.1597 219.392 96.5397C220.884 96.9232 222.496 96.9977 224.181 96.8988C225.825 96.7975 227.44 96.5288 228.775 95.9308C230.11 95.3334 231.117 94.4512 231.62 93.2574C231.886 92.6672 232.031 91.9953 232.076 91.2914C232.101 90.9399 232.09 90.5782 232.06 90.22C232.046 90.0406 232.022 89.8629 231.996 89.6882L231.949 89.4354L231.908 89.2492L231.886 89.1542C231.656 88.1182 232.308 87.0911 233.344 86.8603C233.574 86.8092 233.81 86.8028 234.03 86.833C234.148 86.8497 234.391 86.8739 234.581 86.8867C234.785 86.9011 234.993 86.9106 235.201 86.9158C235.619 86.9261 236.039 86.9196 236.457 86.8946C237.293 86.8467 238.118 86.7271 238.91 86.5339C240.494 86.1492 241.929 85.4445 243.034 84.4138C244.141 83.386 244.924 82.0284 245.374 80.4739C245.826 78.9247 245.978 77.202 245.922 75.476C245.86 73.7675 245.574 72.1032 244.951 70.6344C244.336 69.1627 243.39 67.8961 242.154 66.9212C240.921 65.9447 239.413 65.2534 237.792 64.8302C236.982 64.6179 236.144 64.4676 235.297 64.3802C234.873 64.3359 234.448 64.307 234.024 64.2936C233.813 64.2875 233.602 64.2848 233.395 64.2869C233.199 64.2882 232.956 64.2969 232.829 64.3064L232.794 64.3087C231.748 64.3851 230.839 63.5993 230.762 62.5535C230.753 62.4267 230.758 62.2916 230.773 62.17C230.94 60.8917 230.484 59.5926 229.549 58.4735C228.62 57.354 227.269 56.4668 225.801 55.9057C225.064 55.6235 224.294 55.4191 223.512 55.3045C222.726 55.1814 221.962 55.1615 221.12 55.2053C219.475 55.2898 217.852 55.6456 216.437 56.2989C215.022 56.9506 213.853 57.9207 213.141 59.1345C212.781 59.7402 212.535 60.4101 212.394 61.1255C212.249 61.8288 212.221 62.631 212.291 63.3289C212.425 64.7538 213.08 66.0561 214.119 67.1643C214.634 67.7189 215.248 68.217 215.91 68.6576C216.242 68.8774 216.588 69.0814 216.942 69.2665C217.119 69.3601 217.298 69.4463 217.476 69.5293L217.739 69.6451L217.957 69.7323L217.323 73.4434L203.359 72.2499C202.963 72.2162 202.67 71.8681 202.704 71.4726C202.734 71.1187 203.016 70.8468 203.359 70.8178Z" fill="#888888"/>
</g>
<g id="Group_50">
<path id="Vector_39" d="M234.566 62.6183C234.503 62.9532 234.441 63.1558 234.369 63.4076C234.297 63.6445 234.223 63.8792 234.137 64.107C233.973 64.5661 233.782 65.011 233.569 65.447C233.142 66.3171 232.613 67.1457 231.977 67.8961C231.353 68.6545 230.564 69.2973 229.723 69.8047L229.076 70.1604L228.393 70.4323C228.279 70.475 228.168 70.5241 228.053 70.5599L227.701 70.6486L227.004 70.8183C226.496 70.9418 225.984 70.6303 225.86 70.1223C225.752 69.6764 225.979 69.2275 226.379 69.0409L226.517 68.9771L227.017 68.7436L227.264 68.6308C227.344 68.588 227.417 68.5336 227.494 68.4864L227.944 68.1999L228.35 67.8565C228.868 67.3799 229.323 66.8473 229.659 66.2173C230.003 65.5985 230.27 64.9287 230.458 64.2307C230.551 63.8819 230.629 63.5273 230.681 63.1723C230.712 62.9949 230.731 62.819 230.749 62.6444C230.763 62.4839 230.78 62.2724 230.771 62.1896C230.659 61.1209 231.434 60.1638 232.503 60.0517C233.571 59.9396 234.528 60.715 234.641 61.7835C234.661 61.9741 234.652 62.161 234.619 62.3403L234.566 62.6183Z" fill="#888888"/>
</g>
<g id="Group_51">
<path id="Vector_40" d="M233.742 90.6306C232.756 90.5828 231.908 90.3094 231.159 89.9587C230.409 89.6038 229.755 89.1547 229.162 88.6547C227.984 87.6496 227.042 86.4208 226.414 85.0075C225.789 83.6041 225.52 81.9638 225.829 80.4019C226.118 78.8293 226.991 77.483 228.005 76.4571C228.411 76.0452 229.075 76.0413 229.487 76.4483C229.869 76.8261 229.9 77.4253 229.577 77.8388L229.557 77.8642C228.858 78.7605 228.389 79.7588 228.328 80.7702C228.251 81.7774 228.531 82.7878 229.063 83.6919C229.592 84.5948 230.363 85.3922 231.229 85.9701C231.661 86.2571 232.118 86.4937 232.563 86.6396C233.004 86.7876 233.432 86.842 233.742 86.8114C234.796 86.7074 235.735 87.4772 235.84 88.5311C235.944 89.5851 235.174 90.524 234.12 90.6283C234.029 90.6373 233.938 90.6398 233.849 90.636L233.742 90.6306Z" fill="#888888"/>
</g>
<g id="Group_52">
<path id="Vector_41" d="M217.323 69.6419L220.699 69.3863C221.886 69.2964 222.921 70.1853 223.011 71.3717C223.1 72.5583 222.211 73.593 221.025 73.6828C220.919 73.6908 220.802 73.6899 220.699 73.6828L217.323 73.4272C216.278 73.348 215.495 72.4364 215.574 71.3912C215.646 70.443 216.403 69.7107 217.323 69.6419Z" fill="#888888"/>
</g>
<g id="Group_53">
<path id="Vector_42" d="M214.561 79.1387L220.699 78.4396C222.14 78.2754 223.441 79.3104 223.605 80.7513C223.769 82.1919 222.734 83.4929 221.293 83.6571C221.096 83.6795 220.888 83.6775 220.699 83.6571L214.561 82.958C213.506 82.8379 212.748 81.8855 212.868 80.8308C212.972 79.9243 213.691 79.2375 214.561 79.1387Z" fill="#888888"/>
</g>
</g>
</g>
<g id="Group_54" opacity="0.2">
<path id="Vector_43" d="M161.472 155.777C160.353 158.028 157.854 159.518 155.341 159.432C155.425 160.934 154.521 162.357 153.324 163.267C152.127 164.177 150.666 164.659 149.224 165.083C130.704 170.533 110.171 168.804 92.8239 160.333C91.8306 159.848 90.8211 159.334 89.7232 159.206C88.6252 159.078 87.3971 159.423 86.7854 160.344C85.6988 161.98 87.0913 164.116 88.542 165.44C94.8393 171.187 103.292 173.862 111.532 176.049C120.437 178.413 129.524 180.409 138.736 180.494C147.949 180.578 165.865 179.157 170.059 169.745C170.942 167.765 169.917 164.356 168.017 163.311C170.574 161.403 172.087 158.177 171.92 154.991C171.813 152.954 171.019 150.964 169.743 149.377C169.168 148.662 167.721 147.938 167.346 147.218C166.925 146.41 167.297 144.86 167.013 143.863C165.237 137.615 162.405 146.947 160.766 148.688C162.108 150.832 162.652 153.402 161.472 155.777Z" fill="#888888"/>
</g>
<g id="Group_55" opacity="0.2">
<path id="Vector_44" d="M247.842 76.1368C247.842 91.7912 233.744 88.7215 233.744 88.7215C233.744 88.7215 236.656 98.8476 222.85 98.8476C209.038 98.8476 210.112 84.5776 214.562 81.0495H206.059C204.961 80.3238 203.863 79.6028 202.765 78.8772C202.483 78.691 202.206 78.5096 201.925 78.3234C202.221 78.3091 202.517 78.2995 202.813 78.2899C209.387 78.0369 215.989 78.2613 222.53 78.9536C220.634 80.7391 218.668 82.6441 217.923 85.1362C217.178 87.633 218.2 90.8509 220.697 91.586C222.769 92.1923 225.012 90.8462 226.139 89.0032C227.266 87.1604 227.533 84.9404 227.777 82.7921C230.799 86.1674 236.628 85.8237 240.008 82.8063C243.383 79.7891 244.543 74.8813 244.09 70.3745C243.899 68.4696 243.45 66.6124 242.868 64.7887C245.618 66.7222 247.842 70.1404 247.842 76.1368Z" fill="#888888"/>
</g>
<g id="Group_56" opacity="0.2">
<path id="Vector_45" d="M233.672 62.3351C232.354 65.4382 230.22 68.1881 227.365 69.945C224.028 72.0027 219.679 72.5088 216.108 70.9858H216.103C215.688 70.8044 215.277 70.5991 214.886 70.3652C211.128 68.1261 209.066 63.1419 210.646 59.0599C210.613 59.4563 210.608 59.8477 210.637 60.244C210.866 63.3375 213.005 66.2737 215.955 67.3097C219.273 68.4793 223.302 67.1331 225.255 64.2064C226.706 62.0342 227.007 59.2509 226.597 56.6728C226.477 55.9423 226.028 54.9015 225.642 53.8322C229.876 55.126 233.147 58.5061 232.669 62.4018C232.669 62.4018 233.042 62.354 233.672 62.3351Z" fill="#888888"/>
</g>
<g id="Group_57" opacity="0.2">
<path id="Vector_46" d="M231.328 145.194C227.236 141.098 231.939 138.439 231.939 138.439C231.939 138.439 220.481 137.007 227.236 127.392C227.236 127.392 223.212 128.375 222.324 124.322C222.085 123.238 222.562 122.035 223.551 120.875C224.033 121.596 224.529 122.302 225.16 122.842C226.29 123.812 228.115 124.347 229.911 124.525C231.009 124.634 231.598 125.86 231.047 126.815C229.987 128.658 229.505 130.901 230.44 132.5C231.493 134.301 233.576 135.39 235.648 135.402C236.389 135.406 236.989 135.935 237.102 136.668C237.197 137.292 237.555 137.908 238.088 138.253C239.157 138.94 240.561 138.797 241.769 138.41C246.314 136.954 249.431 132.466 250.295 127.773C250.353 127.463 250.4 127.148 250.443 126.833C254.588 142.287 235.286 149.152 231.328 145.194Z" fill="#888888"/>
</g>
</g>
</svg>
