<svg width="34" height="32" viewBox="0 0 34 32" fill="none" xmlns="http://www.w3.org/2000/svg">
<g id="Group">
<g id="Group_2">
<path id="Vector" d="M31.8477 24.1669C31.471 24.8629 31.0466 25.5118 30.5839 26.1098C30.1682 26.6437 29.7176 27.1366 29.2318 27.5878C28.2757 28.4903 27.1986 29.2372 26.0311 29.8281C25.6812 30.0049 25.3154 30.1654 24.9463 30.3171C24.2968 30.5843 23.6254 30.8001 22.9311 30.9654C22.7526 31.0207 22.568 31.0563 22.3901 31.0952C22.2022 31.1374 22.0111 31.1702 21.8227 31.1965C20.842 31.3789 19.8415 31.472 18.8186 31.4665C18.5032 31.4774 18.1877 31.472 17.8816 31.4479C17.0624 31.4161 16.2366 31.3334 15.4103 31.1867C15.1458 31.1429 14.8906 31.0963 14.6256 31.0366C14.5007 31.0147 14.3764 30.9928 14.2488 30.9616C13.4416 30.7765 12.6438 30.5405 11.8585 30.2475C11.6094 30.1561 11.3575 30.0548 11.1083 29.948C6.86216 28.1639 3.13297 24.8224 1.24538 20.6513C0.721321 19.4931 0.369211 18.3086 0.17974 17.1335C0.134289 16.8564 0.098147 16.576 0.0746 16.3017C0.00176855 15.6292 -0.0195882 14.9666 0.0187442 14.31C0.0302439 13.9021 0.0663859 13.4908 0.122242 13.0889C0.261333 12.0523 0.515969 11.0414 0.878484 10.0677C0.881222 10.0612 0.881222 10.0612 0.881222 10.0612C1.02305 9.67784 1.17802 9.30164 1.36092 8.93091C1.8702 7.85486 2.50651 6.84235 3.26495 5.90539C3.63239 5.43555 4.03597 4.99089 4.47077 4.57799C5.81021 3.25334 7.42182 2.15047 9.2322 1.35315C11.2337 0.474794 13.3611 0.0328749 15.4995 0.002209C18.3613 -0.0437898 21.2488 0.629763 23.8418 1.9139L23.8867 1.9358C24.5378 2.25834 25.1609 2.6225 25.7649 3.02499C26.4933 3.49702 27.1838 4.02984 27.83 4.60428C28.0857 4.82606 28.3294 5.05824 28.5627 5.29317C29.0555 5.77561 29.5166 6.28981 29.9486 6.8303C30.0927 7.00498 30.2339 7.18624 30.3714 7.37352C30.6337 7.72673 30.8845 8.08869 31.1118 8.4638C31.2755 8.71187 31.4294 8.97855 31.5772 9.24305C33.1434 12.0227 33.9149 15.2349 33.5645 18.5293C33.3411 20.6201 32.7398 22.5093 31.8477 24.1669Z" fill="#F78735"/>
<path id="Vector_2" d="M22.3901 31.0955C22.2022 31.1376 22.0111 31.1705 21.8227 31.1968C20.842 31.3791 19.8415 31.4722 18.8186 31.4667C18.5032 31.4777 18.1877 31.4722 17.8816 31.4481C17.0624 31.4163 16.2366 31.3337 15.4103 31.1869C15.1458 31.1431 14.8906 31.0965 14.6256 31.0369C14.5007 31.0149 14.3764 30.993 14.2488 30.9618C13.4416 30.7767 12.6438 30.5407 11.8585 30.2478C11.6094 30.1563 11.3575 30.055 11.1083 29.9482C6.86216 28.1641 3.13297 24.8226 1.24538 20.6515C0.721321 19.4933 0.369211 18.3089 0.17974 17.1337C0.134289 16.8566 0.098147 16.5763 0.0746 16.3019C0.00176855 15.6294 -0.0195882 14.9668 0.0187442 14.3103C0.0302439 13.9023 0.0663859 13.491 0.122242 13.0891C0.261333 12.0525 0.515969 11.0416 0.878484 10.068C0.881222 10.0614 0.881222 10.0614 0.881222 10.0614C1.02305 9.67807 1.17802 9.30187 1.36092 8.93114C1.8702 7.8551 2.50651 6.84258 3.26495 5.90563C3.63239 5.43578 4.03597 4.99112 4.47077 4.57823C5.81021 3.25357 7.42182 2.1507 9.2322 1.35338C11.2337 0.475026 13.3611 0.0331073 15.4995 0.00244141C14.9185 0.661758 14.4021 1.3835 13.9208 2.11565C13.889 2.16329 13.854 2.21805 13.8222 2.26569C13.6607 2.51212 13.5057 2.76128 13.3568 3.01372C12.9132 3.73273 12.5052 4.47692 12.1257 5.24302C11.9834 5.53051 11.8476 5.8213 11.7243 6.1181C11.421 6.79494 11.1532 7.48108 10.9199 8.17709C10.8066 8.51879 10.7058 8.86652 10.6116 9.21753C10.4139 9.92285 10.2601 10.6336 10.1516 11.3516C10.1018 11.6609 10.0585 11.9736 10.0377 12.2891C9.93916 13.1789 9.92054 14.0841 9.98789 14.992C9.98789 15.0238 9.98515 15.0621 9.99118 15.0972C10.0251 15.5112 10.0678 15.9224 10.1363 16.3298C10.2732 17.177 10.4742 18.0082 10.7419 18.8165C10.9352 19.4057 11.1609 19.9785 11.421 20.5447C12.1285 22.0879 13.055 23.5407 14.1568 24.8654C14.3364 25.0817 14.5248 25.2941 14.717 25.5006C15.3029 26.1643 15.9393 26.7896 16.6046 27.3734C16.7996 27.5415 16.9983 27.703 17.1966 27.8651C17.7661 28.3377 18.3602 28.7752 18.9801 29.1772C19.0442 29.2248 19.1077 29.2725 19.1751 29.3135C19.3508 29.4242 19.5233 29.5419 19.7019 29.6459C20.44 30.0988 21.1941 30.5194 21.9761 30.8989C22.1124 30.9657 22.246 31.0325 22.3901 31.0955Z" fill="#FCA260"/>
</g>
<g id="Group_3">
<path id="Vector_3" d="M25.7666 3.02497C21.8507 2.51789 17.984 2.32896 13.9192 2.9253C13.7313 2.95159 13.543 2.97788 13.3584 3.01347C9.84224 3.5786 6.51554 4.61138 3.2666 5.90592C3.63404 5.43607 4.03763 4.99142 4.47243 4.57853C7.51492 3.49263 10.6801 2.7216 13.8239 2.26599C13.8398 2.26599 13.8589 2.25942 13.8748 2.25942C17.0509 1.80381 20.5205 1.60558 23.8878 1.93633C24.5394 2.25832 25.1626 2.62248 25.7666 3.02497Z" fill="#FFB783"/>
<path id="Vector_4" d="M28.5642 5.29267C22.9425 4.56874 17.2222 4.84637 11.7259 6.11736C7.97484 6.96396 4.32396 8.28204 0.882812 10.0612C1.02464 9.67789 1.17961 9.30168 1.36251 8.93095C4.77902 7.26624 8.46167 6.05986 12.1273 5.24228C12.6114 5.13167 13.0889 5.03474 13.567 4.93672C18.2517 4.01948 23.1331 3.73254 27.8315 4.60323C28.0873 4.82611 28.331 5.05775 28.5642 5.29267Z" fill="#FFB783"/>
<path id="Vector_5" d="M30.3733 7.37296C24.7247 6.38179 18.8555 6.80016 13.3444 8.34222C12.4179 8.60726 11.5044 8.8942 10.6129 9.21674C6.88924 10.5381 3.42837 12.3397 0.0195312 14.31C0.031031 13.902 0.0671724 13.4908 0.123028 13.0889C3.50668 11.0901 7.14606 9.39252 10.9213 8.17629C17.1256 6.16658 23.6755 5.44867 29.95 6.82973C30.094 7.00441 30.2353 7.18567 30.3733 7.37296Z" fill="#FFB783"/>
<path id="Vector_6" d="M31.4868 22.3105C32.2315 18.1066 32.4166 13.2997 31.11 9.16146C31.2661 9.18337 31.4194 9.21129 31.5788 9.2425C31.4309 8.97856 31.2771 8.71132 31.1133 8.46326C25.8273 7.22184 19.8677 8.14401 14.8538 9.66197C13.2625 10.1461 11.6931 10.7134 10.1532 11.3502C8.32967 12.0933 6.54229 12.9262 4.77681 13.8095C3.19259 14.5997 1.63082 15.4408 0.0761719 16.3011C0.0997189 16.5749 0.135861 16.8553 0.181312 17.1329C0.337379 17.059 0.492899 16.9851 0.642395 16.9079C1.17138 19.3091 3.13126 21.6468 4.72862 23.3844C6.75805 25.5978 9.19708 27.4181 11.911 28.7137C11.6514 29.1255 11.3853 29.5351 11.1099 29.9469C11.359 30.0542 11.6109 30.155 11.8601 30.2464C12.8836 28.7093 13.843 27.1245 14.7197 25.4992C15.2514 24.5218 15.7574 23.5317 16.2376 22.529C18.2353 18.3651 20.0977 13.7203 20.7839 9.12149C21.4656 9.01361 22.1534 8.92489 22.8385 8.85863C22.3117 10.9833 22.0587 13.1803 21.4459 15.3023C20.7291 17.7944 19.8239 20.2329 18.8169 22.621C18.1378 24.2332 17.4018 25.8169 16.6073 27.3726C15.9781 28.6118 15.3166 29.8352 14.6266 31.0361C14.8911 31.0958 15.1463 31.1423 15.4113 31.1861C16.0383 30.0969 16.633 28.9919 17.1992 27.8644C18.1198 26.0534 18.9631 24.2047 19.7434 22.3242C20.665 20.0769 21.5072 17.7819 22.1638 15.443C22.7481 13.3468 23.3987 11.0206 23.3297 8.81537C23.7026 8.78525 24.0656 8.74254 24.4419 8.72173C24.6363 8.71461 24.8274 8.71352 25.0218 8.7064C25.0218 8.73871 25.0251 8.77978 25.0382 8.81811C24.9884 9.14339 24.9451 9.47195 24.9084 9.8038C24.8405 10.3426 24.7819 10.8941 24.7107 11.4395C24.5371 12.642 24.3285 13.8347 24.0684 15.0181C23.5328 17.4648 22.8062 19.8644 21.9453 22.2136C21.0785 24.5913 20.061 26.9028 18.9833 29.1764C18.623 29.9365 18.2561 30.6933 17.8832 31.4468C18.1893 31.4709 18.5047 31.4764 18.8201 31.4654C19.1169 30.8652 19.4116 30.2552 19.7051 29.6452C21.0423 26.8157 22.2388 23.9172 23.2278 20.9558C24.0311 18.5304 24.697 16.0607 25.1428 13.5379C25.2737 12.7915 26.0305 9.89799 25.6909 8.68833C26.255 8.68943 26.8163 8.71242 27.3803 8.74528C27.6185 13.3561 26.738 17.9943 25.3558 22.3757C24.4429 25.2638 23.3516 28.159 21.9793 30.8986C21.9289 31.001 21.8813 31.0969 21.8243 31.1954C22.0121 31.1692 22.2032 31.1368 22.3916 31.0941C22.5696 31.0553 22.7547 31.0197 22.9327 30.9643C24.2195 28.3331 25.203 25.5118 26.0715 22.8406C26.8902 20.3036 27.5303 17.7096 27.8863 15.063C28.159 13.0511 28.4563 10.7961 27.9734 8.78416C28.4547 8.82358 28.9328 8.86958 29.4147 8.92489C29.545 16.0991 27.86 23.5985 24.9478 30.316C25.3169 30.1648 25.6827 30.0038 26.0326 29.827C27.1027 27.1519 27.9394 24.3849 28.6327 21.5872C29.5959 17.6981 30.9578 13.0363 29.9535 8.99225C30.2054 9.02949 30.4546 9.05741 30.7065 9.09465C31.1221 13.5231 31.512 17.7161 30.7103 22.1621C30.3735 24.0311 29.8768 25.8371 29.2339 27.5862C29.7197 27.1349 30.1703 26.6421 30.586 26.1082C30.9578 24.8558 31.259 23.5892 31.4868 22.3105ZM12.2938 28.1009C9.82518 26.8234 7.5685 25.2605 5.63217 23.2606C4.62732 22.2224 3.72103 21.0976 2.91934 19.906C2.23319 18.882 1.7157 17.7271 0.981911 16.7359C1.18233 16.6363 1.38276 16.5366 1.5673 16.4375C1.8411 16.2863 2.11764 16.1451 2.3909 15.9945C4.5731 20.55 8.58869 24.5338 13.2307 26.5463C12.9235 27.0687 12.6103 27.5895 12.2938 28.1009ZM13.5631 25.9538C13.5598 25.9445 13.5533 25.9412 13.544 25.9286C8.9983 23.368 5.60424 20.153 2.88703 15.73C3.79331 15.2481 4.70289 14.7761 5.62231 14.3166C6.92561 16.6795 9.08865 18.8004 11.422 20.544C12.659 21.4667 13.9371 22.2903 15.1578 22.9742C14.8352 23.61 14.5061 24.242 14.1578 24.8651C13.9684 25.232 13.7657 25.5929 13.5631 25.9538ZM15.5466 22.1884L15.4995 22.2843C13.8408 21.2164 12.2396 20.0977 10.743 18.8163C10.5349 18.6421 10.3306 18.4614 10.1286 18.2736C8.68616 16.9632 7.49129 15.425 6.12173 14.0636C6.69124 13.7805 7.26677 13.5171 7.84285 13.2537C8.39867 14.3319 9.19927 15.3806 10.1368 16.3302C11.9258 18.146 14.2104 19.6508 16.317 20.4876C16.0745 21.0582 15.8187 21.6233 15.5466 22.1884ZM16.5673 19.8863C14.9026 18.8951 13.2483 17.9648 11.7517 16.6992C11.1246 16.1664 10.5458 15.5849 9.98892 14.9913C9.38053 14.356 8.79185 13.7148 8.15499 13.1053C8.77214 12.8222 9.3986 12.5522 10.0382 12.2883C10.1209 12.2499 10.2134 12.2078 10.3021 12.1727C11.606 14.695 14.3774 17.5623 17.1916 18.3349C16.99 18.8552 16.782 19.3726 16.5673 19.8863ZM17.4446 17.6647C14.614 16.7485 12.5736 14.2033 10.7479 11.9794C11.5814 11.6448 12.4126 11.3322 13.2587 11.0359C13.6546 11.9712 14.5275 12.8091 15.2415 13.4886C16.0925 14.3073 17.0711 15.1577 18.163 15.6506C17.933 16.3241 17.6871 16.9977 17.4446 17.6647ZM18.3804 14.9869C17.5201 14.2827 16.5777 13.6808 15.7399 12.9317C15.0296 12.2938 14.4081 11.4932 13.6568 10.9067C14.2422 10.7035 14.8248 10.5069 15.4135 10.3289C16.9994 9.85746 18.6164 9.48126 20.2505 9.20088C19.6213 11.1476 19.0233 13.0785 18.3804 14.9869Z" fill="#FFB783"/>
</g>
</g>
</svg>
